<?xml version="1.0" encoding="UTF-8"?>
<svg width="1e3" height="1e3" version="1.1" viewBox="0 0 264.58082 264.58082" xmlns="http://www.w3.org/2000/svg" xmlns:cc="http://creativecommons.org/ns#" xmlns:dc="http://purl.org/dc/elements/1.1/" xmlns:rdf="http://www.w3.org/1999/02/22-rdf-syntax-ns#">
 <metadata>
  <rdf:RDF>
   <cc:Work rdf:about="">
    <dc:format>image/svg+xml</dc:format>
    <dc:type rdf:resource="http://purl.org/dc/dcmitype/StillImage"/>
   </cc:Work>
  </rdf:RDF>
 </metadata>
 <circle cx="132.29042" cy="132.29042" r="122.13055" fill="#dc1e23" stroke="#bf9d23" stroke-width="19.7906" style="paint-order:normal"/>
 <g transform="matrix(.99800316 0 0 .99800316 80.993074 -7.9489714)">
  <path d="m27.433 54.544c-2.2449-0.12462-7.3579 0-8.2302 0.12462-0.87415 0.12462-0.87415 1.3726-0.87415 1.3726s0.5003 4.8619 0.25107 6.3591c-0.25107 1.4972-0.74953 2.9926-0.74953 3.8668 0 0.87232 0 1.3708 0.49847 1.62 0.5003 0.24923 2.7452 2.4942 3.7422 3.1173s1.9957 0.99877 2.1203 1.6218c0.12462 0.62308 0.62308 1.8711 0.87232 2.3696 0.24923 0.49847 1.6219 1.9957 1.6219 1.9957v19.204c0 1.1216 0.24923 11.972 0.12462 14.465-0.12462 2.4942 1.3708 10.602-0.24923 10.975-1.6218 0.37385-6.984 0.62308-6.984 0.62308s-4.9883 0.62309-4.9883-0.12461v-6.1099c0-0.87415 0.62308-7.8564-0.24923-8.1074-0.87232-0.24923-2.4942-0.24923-4.7391-0.49846-2.2449-0.24924-0.7477-0.99694-0.7477-1.4954 0-0.5003 0.12462-19.953 0.12462-19.953s3.1173-1.9957 3.1173-2.7434 0-7.2333 0.12462-8.1056c0.12462-0.87415 1.4972-3.1173-0.7477-3.2419-2.2449-0.12462-7.1087 0-7.1087 0s-2.4942 0.24923-2.3696 1.1216c0.12462 0.87232 0.87415 8.2302 0.5003 8.1056-0.37568-0.12462-3.9914-0.37385-3.9914-0.37385v-3.7403s0-4.2406-0.62308-4.6145-9.6028-0.37385-9.6028-0.37385-0.24923 2.1203-0.24923 3.2419-0.12462 5.4868-0.12462 5.4868-4.4899 0.37385-4.4899 0 0.12462-3.9896 0.12462-4.3653c0-0.37385 0-4.3634-0.37385-4.488-0.37385-0.12462-7.3579-0.12462-7.3579-0.12462l0.12645 4.9883 0.12278 3.9896s-2.2449 0.87232-1.1216 1.6218c1.1216 0.7477 3.3665 2.9926 3.3665 2.9926l0.37385 6.8576-0.43616 13.532-4.6768 0.18693-0.12462 14.465s-1.3708 2.2449-1.4954 2.7434c-0.12462 0.49847 3.865 3.9914 3.865 3.9914l0.37385 5.2376-5.6114 6.1099 3.8668 3.865-0.12462 43.273-0.99693 5.3622-6.579 6.2363-2.2449 0.84116c0.30788 0.29139 2.6041 3.6066 4.7024 6.2657 1.3085 1.5595 13.224 14.591 27.19 22.821 13.968 8.2302 34.169 16.71 55.493 16.46 21.326-0.24923 42.525-8.4794 53.873-16.71 11.347-8.232 28.182-23.258 29.18-25.004 0.99693-1.7465 2.8057-5.2999 2.8057-5.2999l-9.042-8.1056-0.49663-45.267 5.2376-3.3665s-2.9945-5.8625-3.3683-5.9871c-0.37385-0.12461-3.1172-1.4954-3.1172-1.4954s0-4.8637-0.49847-4.9883c-0.49846-0.12462-1.8711-1.1234-1.8711-1.1234l1.6218-3.865-0.5003-15.65-3.6157-0.56078 0.12462-22.198 3.4911-3.865-0.37385-2.3696-0.49847-7.3579-7.981 0.12462-0.12461 8.1056h-3.7422s0-7.3579-0.49664-7.6071c-0.50029-0.24923-10.851 0-10.851 0l-0.37385 8.4794h-5.113l-0.49847-8.6041-7.1087 0.37385 0.24923 9.3536 3.2419 4.1142-0.37385 22.074-3.9896 1.4954-0.7477 12.471-12.222 0.62308-0.49847-7.1068-0.49847-24.692-0.12462-12.969 3.7403-1.9939 0.24923-2.2449 3.6157-3.3683 2.1203-2.6188-0.62308-12.095-10.351-0.37385-0.49847 6.8576 0.37385 4.7391-5.8607-0.24923-0.12462-10.974-11.972-0.37385-0.37385 5.6114 0.49847 6.3591h-6.8576l-1.8711-11.597-10.101 0.24923-0.24923 11.472-6.1099-0.12462-0.74953-1.62 0.25107-9.4782z" fill="#fff"/>
  <path d="m131.52 203.47c-2.6499-1.4038-17.926-4.0226-26.936-2.8057-9.0091 1.215-17.677 5.2687-19.547 7.1398-2.5876-2.6188-6.9529-5.8313-17.21-5.2687-6.766 0.37019-11.254 2.5253-13.561 4.1142-3.8668-2.8992-6.9071-3.5589-15.713-4.1142-7.4202-0.46914-9.4782 0.65424-20.857 4.7684-2.5565-1.9627-7.4513-5.0488-22.074-4.8619-14.62 0.18693-24.597 2.2431-24.597 2.2431s12.562 13.187 17.958 17.958c5.3933 4.7703 18.643 12.627 34.138 16.743 15.495 4.1142 34.73 4.1142 46.764 2.2449 12.033-1.8711 29.866-8.8863 39.469-16.462 9.601-7.576 22.281-21.584 22.165-21.698" fill="#bf9d23"/>
  <path transform="matrix(.26458 0 0 .26458 -81.152 7.9616)" d="m530.66 169.29c-3.7472 0-11.733 0.33288-13.035 0.49218-0.2632 0.0348-2.1886 0.0755-5.0976 0.13086-0.8658 0.014-3.5183 1.5174-3.6152 3.9277-0.21471 5.4649-0.60324 15.785-0.25 25.031 0.18701 5.0632 0.20845 11.118 0.17383 14.574-0.0348 3.3939-1.6015 3.6718-4.8984 3.9004-3.9896 0.29091-6.9669-0.83985-11.898-0.83985-4.3428 0-4.4537-4.9369-4.4121-5.8027 0.11081-3.4008-0.22192-11.333-0.35352-17.719-0.15239-7.7575-0.35351-15.972-0.35351-17.156 0-6.5939-3.8297-5.5629-7.5977-5.5352-1.4753 7e-3 -15.786-0.0206-18.064 0.13867-2.2788 0.16623-11.886 0-13.68 0-0.46407 0-3.4212 0.0987-7.584 0.24415-0.86579 0.0348-3.359 1.7659-3.3867 4.4394-0.097 8.6302 1.3843 27.927 1.1211 37.479-0.12469 4.2389-1.9729 4.7656-4.127 4.7656-6.0052 0-10.244-0.50657-14.254-0.52735-1.3645-7e-3 -2.8614-3.6162-2.709-6.8301 0.14544-3.2208-0.11081-24.713 0-31.584 0.1039-7.0649-1.8917-6.8425-5.7012-6.7109-3.2762 0.11774-5.5138 0.1875-5.8809 0.1875-1.6346 0-22.973 0.64996-26.062 0.98243-3.0961 0.32553-5.867 0.32621-6.0332 3.0898-0.15931 2.7775 0.32597 10.922 0.49219 16.297 0.15931 5.3748-0.9775 20.69-1.1367 22.803-0.16622 2.1195-2.4514 3.5871-2.2852 6.1914 0.15931 2.6112 0.48368 4.2398 5.6992 8.3125 5.2156 4.0727 9.9411 6.6774 12.061 8.7969 2.1125 2.1195 6.5106 5.5399 7.4941 6.6758 0.97662 1.1428 1.4668 1.9604 1.4668 3.4219 0 1.4684 1.2964 4.3975 2.6055 6.1914 1.3022 1.7939 3.256 2.9308 4.0664 3.748 0.82424 0.81039 1.959 2.2777 1.959 3.7461s0.15994 7.8206 0.32617 10.266c0.16622 2.445 0.49154 36.163 0.16601 39.426-0.33244 3.2554-0.98375 13.36-0.6582 14.17 0.32553 0.81038 0.49177 1.3031 0 2.7715-0.48485 1.4615-0.47821 40.208 0.4707 62.199 0.70649 16.277-0.85865 27.337-0.91406 31.348-0.0348 2.4173-1.7444 5.0909-8.6777 5.084-9.6069-8e-3 -24.729 5.8e-4 -28.164-0.72657-1.7801-0.38093-2.666-2.7576-2.7422-6.5117 0.75497-12.744 0.20713-34.625 0.49804-40.561 0.1039-2.3342 0.72787-6.5385-6.2539-6.5801-5.4164-0.034-10.722-6e-3 -16.242-0.98242-1.9394-0.3394-0.52713-27.305-0.69336-28.939-0.15931-1.6277 0.32533-21.824 0.16602-28.342-0.16623-6.5177 0-13.521 0-15.807 0-2.2788 0.81027-4.2324 1.9531-5.209 1.1359-0.97662 6.0262-5.7 7.0098-6.6836 0.96968-0.9697 2.2795-1.953 2.1133-4.8828-0.15931-2.9299 0.32617-5.209 0.32617-7.9863 0-2.7636 0.65039-12.869 0.65039-16.941 0-4.0727 0.32642-12.059 0.16016-13.693-0.15931-1.6277 0.42839-5.5282-4.5586-5.5352-3.9965 0-14.663 0.16648-20.363-0.31836-3.7679-0.32553-14.095-0.96226-15.736 2.3555-2.5143 5.0701-0.76897 25.565-0.88672 28.855-0.11774 3.29-0.92158 3.7193-5.1328 3.8301-6.5662 0.17318-6.0945-3.3046-5.8106-5.7773 0.2355-9.5376 0.47729-18.722 0.42188-24.865-0.0208-2.258-2.9365-3.7537-3.5391-3.8438-7.2935-1.0874-30.733-0.55514-38.553-0.0703-2.3203 0.14544-1.7375 24.59-1.2734 31.828 0 1.7732-2.3974 1.8755-6.8926 1.9102-5.5619 0.0416-5.133-1.4755-5.1191-4.5508 7e-3 -4.142-0.30469-7.8679-0.30469-16.637 0-5.3748 0.94995-12.377-1.3496-12.426-6.6147-0.13852-8.2568-0.16543-11.547-0.2832h-19.525c-0.70648 0-2.0293-0.0687-2.0293 0.70703 0 0.77576-0.99631 29.755-0.83008 31.064 0.15931 1.3022-0.65234 1.7871-0.65234 1.7871s-2.7704 2.4434-2.9297 5.0547c-0.16623 2.6043 0.96911 7.6473 2.4375 9.6074 1.6485 2.2164 8.9643 7.1688 10.426 8.3047 1.4684 1.1428 1.633 2.7699 1.4668 4.2383-0.15931 1.4684-0.49109 8.9561-0.65039 15.314-0.15931 6.3515 0 16.45 0 20.197s0.32617 15.808 0.32617 16.943c0 1.1428-0.16635 11.697-0.21485 12.625-0.24242 3.7125-4.489 3.7126-10.418 3.3594-3.7956-0.22866-7.3283-0.35221-9.4062 0.88086-1.5931 0.95581-0.32529 4.3152-0.16602 7.252 0.16622 2.9298 0.33224 27.2 0.16602 30.947-0.13852 2.8744 0.0625 15.784 0.0625 16.436 0 1.1428-0.6919 2.1742-0.87891 2.2988-0.81038 0.49179-4.3908 2.959-6.0254 5.0508-1.1359 1.4684-0.97662 6.6824 0 7.8184 0.98354 1.1428 4.321 5.0302 8.082 8.4726 4.0519 3.6917 8.5131 6.9048 8.8594 7.168 0.65801 0.4918 1.1426 0.98257 1.1426 1.793 0 0.60953 0.60873 9.3037 0.28321 13.342-0.0831 1.1983-0.93487 1.9739-1.5859 2.625-0.65109 0.65106-17.086 16.92-20.037 19.871-2.2788 2.2788-2.6108 4.565-1.3086 5.8672 2.6112 2.6112 12.224 10.75 13.686 12.059 1.4684 1.3022 1.8144 2.4246 1.8144 3.5606 0 1.1428-0.67187 33.786-0.67187 39.285 0 0.80345 7.2e-4 2.2435 8e-3 4.1621h2e-3c0.0417 13.642 0.23495 51.38 0.80273 58.229 0.658 7.8198-1.3015 35.845-0.65039 40.402 0.38787 2.8121 0.5126 20.017-0.30469 23.113-1.4615 1.4684-1.9759 5.7211-1.6504 7.1894 0.32553 1.4615-0.47087 2.9514-1.2812 3.6094-0.81731 0.64414-24.476 23.494-24.947 23.916-0.56796 0.49871-5.1328 5.4922-5.1328 5.4922l4.5996 6.9551c0.84502-0.14552 4.0793-5.3682 5.2637-6.4141 1.9048-1.6831 11.726-13.036 15.307-15.641 3.5878-2.6112 9.4543-7.1685 11.082-8.4707s6.1863-1.627 8.1465-1.627c1.9532 0 13.387-0.33203 22.564-0.33203 11.428 0 21.506 1.9938 27.602 1.3496 6.1922-0.65106 31.288 0.60935 36.178 1.5859 4.8831 0.98354 21.173 1.6359 28.342 0.65234 7.1688-0.97659 23.46-0.65166 30.629-0.32617 7.1688 0.32542 17.268 0.6582 21.832 0.6582 4.5575 0 6.8359 1.295 6.8359 4.8828 0 3.1723 0.7693 18.583 0.26367 43.289l9.1836-8e-3v-32.857c0-4.89 0.65862-21.506 0.32617-28.35-0.32553-6.8363-1e-3 -15.308-0.9707-22.477-0.97661-7.1688 1.6287-15.964 0.9707-21.18-0.65108-5.2156-1.2962-23.46-0.9707-26.064 0.31861-2.6043 0.31836-6.8438 0.31836-6.8438s4.5649-0.65167 7.8203-1.3027c3.2623-0.65106 3.4836 0.30658 3.0957 2.1211-0.34632 1.6692 2.287 9.6064 0.65235 19.705-1.0944 6.8848-0.16016 11.081-0.16016 13.359 0 2.2857 0.65108 15.315 0 20.205-0.65108 4.8831 0.32553 31.28 0 38.123-0.32553 6.8363-0.65102 16.941-0.97656 23.777-0.09 1.8701-0.17365 4.0529-0.26367 16.832l7.8965 8e-3c0.0208-13.97-6e-3 -17.351-0.14453-19.117-0.32553-4.232-4.3e-4 -41.377 0.33203-44.633 0.32553-3.2623 0.32553-27.374 0-30.629-0.33249-3.2623 1.0182-10.757 0-15.314-0.65801-2.9368 0.9772-3.907 1.3027-6.8438s-0.3255-11.075-0.97656-14.988c-0.65801-3.9065 2.8534-14.601 4.8828-20.523 3.9134-11.408 16.291-18.9 16.291-18.9s-6.8378 0.97527-12.379 4.8887c-3.9688 2.7844-5.8652 4.2402-5.8652 4.2402s-2.6056-4.2395-4.2402-5.8672c-1.6208-1.6277-1.6198-2.9361-0.96875-5.2148 0.29091-1.0251 1.503-5.6039 2.9922-10.66 1.8216-6.1783 4.0378-13.108 5.4785-15.082 2.6043-3.5879 6.5185-10.423 8.4648-14.336 1.9602-3.9065 5.8658-7.814 7.168-9.123 1.3022-1.3022 6.1926-9.1222 8.7969-11.727 2.6112-2.6112 18.576-20.203 18.576-20.203s-2.2783 12.384 6.8438 13.035c-1.9532-6.1922 0.32646-20.205 11.076-20.205-2.2788-10.424 8.4706-14.338 14.012-14.338 5.5342 0 14.662 0.65902 14.662 13.688 9.4476 1.6277 13.681 11.075 10.1 20.855 3.9065-0.65106 5.8596-5.2168 6.5176-9.7812 7.4943 5.8736 3.2545 3.9135 5.5332 6.1992 2.2857 2.2788 6.5183 8.4648 9.4551 13.029 2.9298 4.5576 8.1457 8.7969 10.75 12.385 2.6043 3.581 11.4 15.638 13.027 20.521 1.5515 4.6406 4.5717 11.346 6.2617 15.072h2e-3c0.0962 0.20636 0.1782 0.39327 0.25391 0.57227 1.6277 3.581 5.8666 10.098 4.5644 12.377-1.3022 2.2788-4.2383 6.1914-4.2383 6.1914s-7.8119-7.1687-14.662-5.541c10.757 6.1922 11.406 13.361 13.359 18.244 1.9602 4.89 3.707 9.7811 3.707 13.688 0 3.9134 2.9297 10.425 2.9297 12.385 0 1.9532-1.6276 16.941-1.9531 22.156-0.32553 5.2086 1.3015 10.091 0.65039 13.354-0.65108 3.2623-0.65166 16.617-1.3027 21.832-0.65107 5.2086 0.32689 26.064-0.32421 31.605-0.52641 4.4675-0.41587 20.197-0.35352 26.092l5.0977 0.0156c-0.0348-2.4242-0.11768-5.9641-0.30469-9.1641-0.32553-5.5411 0.33265-16.291 0.6582-19.221 0.32553-2.9368 1.6263-10.757 1.3008-16.291-0.32553-5.5411-0.32553-28.024 0-33.891s-0.32492-21.181 0.32618-24.762c0.65107-3.5879 1.6283-11.401 1.3027-15.314-0.32553-3.9065 0-8.7955 0-11.074 0-2.2788 0.97646-2.6055 2.9297-2.6055 1.9602 0 3.2544-0.65802 5.5332 0 2.2857 0.65106 3.263 2.6053 2.9375 4.5586-0.32553 1.9532-0.32487 19.226-0.65039 24.109-0.32553 4.89 0.64976 21.507 0.32422 26.064-0.32553 4.5645-1.3014 25.738-1.627 32.588-0.32554 6.8363-0.32685 37.465 0.32421 40.395 0.26321 1.1983 0.0427 7.5158-0.31054 9.1504l7.8066 0.0332v-7.2227c0-3.5878 0.9753-25.087 0.32422-28.35-0.65105-3.2554-0.97547-6.518 2.6055-6.1856 3.5878 0.32542 15.639 1.2958 21.18 0.32618 5.5411-0.98355 15.965-0.98438 25.738-0.98438 9.7731 0 30.303 0.98422 36.82-0.65039 6.5108-1.6277 17.593 1.3084 20.197 0.65039 2.6112-0.65106 3.907-3.5801 5.8672-2.6035 1.9533 0.97663 7.1698 1.3008 9.123 1.3008 1.9601 0 14.987 0.32617 25.086 0.32617h37.473c5.541 0 8.47 1.3015 10.098 3.2617 1.6277 1.9532 8.1463 11.726 11.076 13.68 2.9368 1.9532 5.8651 7.8202 7.8184 9.7734 0.91427 0.91427 2.9167 2.6322 5.334 4.627l4.7168-9.0664c-2.4034-2.0017-3.4286-2.9501-4.1836-3.7051-1.6277-1.6277-7.1679-10.751-9.1211-13.029-1.9533-2.2788-6.843-8.4715-8.4707-9.4551-1.6277-0.97663-3.9077-4.5566-5.2168-6.5098-1.3021-1.9533-2.2786-2.6126-3.9062-3.2637-1.6277-0.65106-1.6276-1.3013-1.9531-3.5801-0.3326-2.2788 0.65185-16.29 0.32617-19.227-0.32542-2.9299-0.32617-8.14-0.32617-11.402 0-3.2554-0.33318-19.219-1.3027-21.498-0.98354-2.2857 1.3032-6.8444 0.97071-10.758-0.31862-3.9064 0.33203-15.965 0.33203-21.506 0-5.5342-0.33261-10.424-0.97657-12.703-0.65109-2.2788 0.97702-9.7726 0.64454-13.354-0.0624-0.74804-0.10422-3.1237-0.125-6.4414h4e-3c-0.0832-12.661 0.125-39.073 0.125-41.137 0-2.6043 0.65026-4.5572 2.6035-5.8594 1.9532-1.3091 13.035-8.3125 14.504-9.2891 1.4614-0.97663 3.0895-2.1177 1.6211-4.3965-1.4615-2.2857-7.4877-14.171-10.75-18.41-3.2554-4.232-7.0023-7.9864-8.4707-10.75-1.4684-2.7705-4.3978-7.0091-5.0488-7.6602-0.6511-0.65109-1.3027-2.1201-1.3027-3.9141 0-1.787 0.16016-2.9305 0.16016-4.0664 0-1.1428-0.97668-2.1185-2.7637-2.7695-1.794-0.65109-3.0973-0.97736-1.4766-2.9375 1.6346-1.9533 3.9134-4.3918 4.5645-7.8203 0.65801-3.4147 1.3104-7.0016-1.3008-10.098-0.89352-1.0598-1.6278-1.7875-1.7871-3.2559-0.1663-1.4684-0.49326-3.907-0.33399-5.8672 0.1663-1.9533-0.31861-3.5798 0-5.6992 0.3326-2.1195-0.64258-10.75-0.64258-14.822 0-4.0727 1.4603-14.663 1.1348-19.221-0.32542-4.5645 0.89442-3.8449-0.89258-7.4258-1.794-3.5879-9.1914-3.0617-10.84-2.5977-1.6485 0.47793-3.484-1.0529-3.5117-4.4121-0.0265-3.3593-0.069-21.735-0.22852-25.648-0.1663-3.9065 0.31836-22.156 0.31836-26.062 0-3.9134 0.81747-18.245 0.65821-19.547-0.1595-1.3091-0.49203-2.6036 1.1426-4.2383 1.6277-1.6277 7.9784-8.1462 9.9316-10.266 1.9601-2.1125 3.5881-6.1854 3.4219-8.1387-0.1595-1.9602-0.81052-3.9203-1.7871-4.5644-0.98355-0.65108-1.6348-1.4691-1.6348-2.9375 0-1.4615 0.81857-13.353 0.65235-14.98-0.1595-1.6346-0.18074-8.3684-0.084-10.896 0.0971-2.535-0.92-3.1094-2.0352-3.1094-1.1221 0-7.3634-0.0422-8.6309-0.17383-2.3204-0.22858-15.46 2.0573-23.266 0.0625-3.006-0.7619-5.071 2.3418-4.4199 7.7305 0.13871 1.1359 0.59728 10.286 1.4492 16.734 0.49871 3.5186-0.53374 5.645-3.4844 5.832-3.0822 0.19393-5.9167 0.40928-6.0898-2.666-0.1799-3.0753-1.2383-13.515-1.2383-16.791 0-9.1913-4.0172-10.32-6.8848-10.299-8.1869 0.0554-17.054 0.0547-18.301 0.0547-2.2788 0-5.5396 0.97096-6.8418 0.65234-1.3022-0.32545-5.8602-0.65172-7.8203-0.32617-1.9533 0.32553-7.163-1.4482-7.1699 5.582 0 4.0104 0.43075 11.783 0.42383 18.037-8e-3 4.6892-0.24381 5.0081-0.42383 6.6289-0.0832 0.80345 0.88723 2.6458-8.8027 2.3203-6.1783-0.2078-6.5725-0.87352-6.1777-4.1289 0.7065-5.8181-0.88675-21.576-0.73437-22.67 0.73419-5.2156-1.7798-6.4275-4.8066-5.7695-3.5186 0.75498-16.943 0.96938-19.873 1.2949-2.9368 0.32553-4.8892-0.32553-7.168 0s-2.2793 2.2857-2.2793 3.5879 0.96945 11.076 0.31835 13.688c-0.64414 2.6043 2.3e-4 12.703-0.31835 15.314-0.32554 2.6043-0.98378 5.8595 0.31835 7.4942 1.3022 1.6277 9.7812 9.4478 10.758 10.75 0.97661 1.3022 1.627 2.9365 1.627 4.8828 0 1.9602 0.32553 23.46 0 28.35s-0.32422 17.266-0.32422 18.9c0 1.6277-0.18836 11.505 0.32422 17.357 0.30474 3.5255-0.43664 5.6393-0.35352 10.377 0.0623 3.3732-3.7957 4.4121-5.832 4.3359-5.5965-0.21468-8.6581 0.49155-9.1914 4.5781-0.37403 2.9021-0.45713 29.069-1.5723 42.049-0.31861 3.7541-5.0212 8.1954-9.3848 8.4102-11.061 0.55412-29.194-1.3379-30.926-1.3379-1.1775 0-3.1646-6.7878-3.3516-13.021-0.18701-6.2268-0.71354-69.685-0.96289-71.451-0.33248-2.2788 0.32422-14.331 0.32422-15.959 0-1.6277-0.98242-5.8673-0.98242-8.4785 0-2.6043 1.301-20.523 0.98242-23.127-0.32553-2.6043 0-25.42 0-27.373 0-1.9532 0.31976-5.2158 2.6055-6.1855 2.2788-0.98355 7.4872-3.912 8.4707-5.8652 0.97662-1.9532 2.6042-4.3984 1.9531-5.375-0.65108-0.97661-0.6522-2.1191 0.1582-3.0957 0.81731-0.97663 5.7015-6.0333 8.1465-7.8203 2.445-1.7939 6.0318-6.1931 7.334-7.3359 1.3022-1.1359 6.1866-5.8595 7.0039-7.4941 0.81731-1.6277 0.65045-4.2317-0.32618-4.8828-0.97661-0.65109-1.7938-1.3022-1.9531-2.6113-0.16623-1.3022 0.15885-11.892 0.48437-13.838 0.33245-1.9602 1e-3 -5.5425-0.32422-6.8516-0.32553-1.3022 0.81641-2.6047 0.81641-4.2324s-6.4e-4 -13.686-0.32617-15.154c-0.32553-1.4684-2.1181-3.0885-4.8887-3.4141-1.3645-0.16622-17.406-0.43034-35.262-0.67968-6.1437-0.09-9.5379 1.4891-7.9102 12.045 0.36019 2.3342 0.0749 14.193 0.17188 19.949 0.0276 1.5238 1.5937 11.531-1.7656 11.531-1.69 0-6.6417 0.73526-11.199 0.74218-0.85886 0-1.7523-2.3009-2.3965-4.8359-0.65801-10.847-0.17426-31.195 0.082-33.695 0.59566-5.6519-4.515-6.1923-6.5859-6.123-4.1073 0.1316-6.7677-0.0762-7.1348-0.0762-1.9602 0-12.059-0.16601-15.807-0.16601zm83.6 7.2637c1.8076 8e-3 2.968 0.68029 2.7441 3.8184-0.32553 4.5575-0.32487 28.019-0.65039 29.646-0.32553 1.6277 0.65036 3.9121-2.9375 3.9121-3.5809 0-26.715 1.3027-28.668 1.3027-1.9602 0-4.2383-0.65106-4.2383-4.5645 0-3.9065 0.65039-33.559 0.65039-33.559s27.04-6.2e-4 30.303-0.32617c1.0195-0.10175 1.9752-0.23429 2.7969-0.23047zm-139.31 1.8652c2.6043 0 4.8887 0.32526 4.8887 4.8828 0 4.5645 0.64453 24.764 0.64453 27.693 0 2.9368 0.33203 7.4942 0.33203 7.4942s-13.36 0.64977-17.918 0.32421c-4.5645-0.32553-19.553 0-19.553 0s-8e-4 -9.7719-0.32618-14.004c-0.32553-4.2389-0.32485-20.205-0.65039-23.135-0.32553-2.9298 0.97703-2.9297 4.2324-2.9297 3.2623 0 25.745-0.32617 28.35-0.32617zm73.959 0.97071c2.2788 0 4.2383-1e-3 4.2383 2.9355 0 2.9368 1.3027 28.994 1.3027 30.629 0 1.6277-0.65721 3.582-2.6035 3.582-1.9532 0-30.303 0.97656-32.914 0.97656-2.6043 0-4.5592 0.65749-4.8848-2.2793-0.32553-2.9298 6.1e-4 -12.704 0.32617-16.617 0.32553-3.9065 0.97726-13.354 0.32618-15.965-0.65109-2.6043-0.65105-2.605 3.5879-2.9375 4.232-0.32553 28.342-0.32421 30.621-0.32421zm-162.35 0.54492c6.6772 0 18.348 0.26393 20.301 0.11328 4.232-0.33249 6.5104-3.7e-4 5.8594 3.9062-0.58873 3.5463-0.65039 25.087-0.65039 28.023 0 2.9298-0.65085 4.5579-3.9062 5.209-3.2623 0.65107-22.524-0.76936-24.762-0.32617-3.2623 0.65109-5.2162-2e-5 -4.8906-1.9531 0.49177-2.9091 1.3021-13.035 0.97656-16.941-0.32553-3.9065-0.32617-12.052-0.32617-14.012 0-1.9532 0.65091-3.5807 2.9297-3.9062 0.57142-0.0831 2.243-0.1134 4.4688-0.11328zm221.47 40.08c5.5515 0.0623 10.043 2.3051 6.0488 6.293-4.5575 4.5645-10.1 3.9147-14.664 4.2402-4.5576 0.32553-31.605 0.98305-34.209 1.3086-0.27686 0.0339-0.54053 0.11271-0.79688 0.2168-2.3883-0.21342-4.7422-0.39063-6.9688-0.39063-6.6008 0-22.15 0.94141-22.15 0.94141l-34.41 0.94141-12.723-0.94141s-26.868 1.4121-36.766 1.4121c-9.8978 0-21.68-0.4707-21.68-0.4707s-0.64959 0.0995-1.6094 0.23437c-2.5968-0.83293-4.9492-0.32226-4.9492-0.32226s-27.374 1.9e-4 -31.932-0.97657c-4.5645-0.96969-9.4531-5.2091-11.406-6.8438-1.9532-1.6277-0.65115-2.9297 5.541-2.9297 3.3177 0 16.942-6.4e-4 22.809-0.32618 5.8666-0.32553 25.412 0.3268 32.906 0.65235 7.4943 0.32553 32.581 0.32553 42.68 0 10.105-0.32553 25.414-0.65172 37.799-0.32617 12.377 0.32553 35.836-0.9772 46.586-1.3027 10.757-0.32553 30.96-0.6497 37.471-1.3008 0.81471-0.0814 1.6308-0.11826 2.4238-0.10937zm166.03 18.027s0.97006 21.173 0.64453 23.459c-0.32542 2.2788-1.953 2.9297-3.9062 2.9297s-13.688 0.97789-15.967 0.65234c-2.2788-0.32553-2.9297-0.65224-2.9297-2.6055 0-1.9532 0.32618-23.459 0.32618-23.459zm-174.87 0.72461c-1.6881 2.6442-4.3359 6.1958-4.3359 7.0957 0 1.6277 2.603 2.9291 0.32422 5.2148-2.2857 2.2788-4.5634 3.9069-11.074 4.2324-6.5177 0.32553-29.651 0.3255-38.773 0.97656-9.122 0.65108-33.565 0-41.053 0-7.4943 0-29.978 0.6497-39.1 1.3008-9.122 0.65801-31.28-0.65102-40.402-0.97656-9.122-0.32553-13.361-0.32479-16.291-1.627-2.9368-1.3022-4.883-1.6269-5.541-3.5801-0.65107-1.9602 0.32623-2.9374-0.65039-4.8906-0.38345-0.76691-1.341-2.4152-2.3359-4.1016 3.7992-0.19777 14.526-0.74805 18.1-0.74805 4.2459 0 24.844-0.55498 28.619-0.084 3.7679 0.47099 15.591 1.4417 19.359 0.9707 3.7749-0.47099 18.217-0.88672 18.217-0.88672l17.33-1.3379 15.992 0.45117 15.35-0.13867 14.414 0.13867 12.217-0.47265c2.3564 0.77515 11.556 0.21188 20.568-0.79883zm126.31 0.23633c2.2436-3e-3 4.3305 1.0138 4.5644 5.2305 0.32542 5.8597 1.3027 18.57 1.3027 20.523 0 1.9532-3.5871 3.5879-6.1914 3.5879s-32.582 0.32618-32.582 0.32618-0.0196-17.269-0.32617-19.555c-0.97663-7.1688 1.3019-9.446 3.9062-9.7715 2.6112-0.32553 23.793 0.65108 26.723 0 0.82402-0.18311 1.7256-0.3407 2.6035-0.34179zm-62.721 0.90039c1.0542 3e-3 1.8178 0.0308 2.123 0.0918 1.6277 0.32554 2.6035 1.634 2.6035 3.2617s0.32617 19.872 0.32617 21.5c0 1.6277-0.65224 3.5879-2.6055 3.5879s-21.762 1.6484-21.762 1.6484 0.25586-7.8403 0.25586-11.096c0-3.2623 0.65108-12.71 0-15.314-0.65107-2.6043 0.32563-3.2617 2.6113-3.2617 1.8515 0 11.879-0.4314 16.447-0.41797zm-320.92 3.3476c2.7774-6e-3 6.0176 0.20305 6.0176 3.9121 0 4.2389-0.32422 18.902-0.32422 20.855s-0.97698 5.8607-5.209 5.5352c-4.2389-0.32553-19.878-0.64453-21.506-0.64453-1.6277 0-2.9316-0.98363-2.9316-2.6113s0.65171-17.267 0.32617-19.871c-0.32554-2.6112-2.1e-4 -6.192 3.9062-6.5176 3.9134-0.32553 15.64-0.65235 18.57-0.65235 0.3671 0 0.75361-5e-3 1.1504-6e-3zm-119.42 0.65821c1.9532 0 13.36 0.4835 14.98 0.32422 3.2623-0.32554 4.5658 0.97703 4.2402 4.2324-0.32553 3.2623-0.32618 17.6-0.32618 19.879 0 2.2788-0.65168 3.2546-4.8906 2.6035-4.232-0.65108-9.7726-0.32422-12.377-0.32422-2.6043 0-4.5631-0.32688-4.8887-3.2637-0.32553-2.9298 0.64977-16.609 0.32422-19.221-0.32553-2.6043 0.97734-4.2305 2.9375-4.2305zm50.746 1.4824h2e-3c4.6593-9e-3 10.971 0.14453 13.438 0.14453h7.8203c1.3022 0 4.8841-0.32573 4.5586 3.9062-0.32554 4.2389-1.6289 17.594-1.6289 19.229 0 1.6277 0.97736 4.5569-1.627 4.2383-2.6112-0.33249-23.134 0-26.396 0-3.2554 0-4.8828-0.33188-4.8828-3.2617 0-2.9368 0.64978-18.57 0.32422-20.855-0.32553-2.2788 0.65218-2.9303 3.582-3.2559 0.91774-0.10174 2.6927-0.14015 4.8106-0.14453zm225.44 14.068c3.4944-0.0189 6.2961 0.57332 7.9238 1.3906 3.2554 1.6277 7.8203 6.843 8.7969 12.059 0.97661 5.2086 2.6055 15.307 2.6055 15.307s1.627-5.8588 1.627-8.1445c0-2.2788 6.8e-4 -11.727-0.65039-13.688-0.64415-1.9532 1.3079-2.6035 2.9355-2.6035 1.6277 0 5.2154-0.32617 7.4942-0.32617s4.2324 1.3035 4.2324 4.2402c0 2.9299 0.65107 13.035 0 14.988-0.65108 1.9532-7.1621 4.8828-7.1621 4.8828s9.4484 1.6341 12.053 2.2852c2.6043 0.65108 10.424 0.32574 10.424 8.1387 0 7.8198-0.32489 11.407 0.32617 13.035 0.65801 1.6277 1.6272 6.5182-3.2559 6.8438-4.89 0.32553-24.436 1.9531-24.436 1.9531s9.6063 1.4686 10.59 3.4219c0.97661 1.9602 0.76835 7.3274 0.48437 13.52-0.48484 10.265 0.65135 12.059-4.8828 13.035-5.5411 0.97663-11.082 2.6055-11.082 2.6055s14.012 1.9531 18.902 1.9531h8.4707c1.6277 0 4.2311 1.9595 4.5566 4.2383 0.32553 2.2857 0.65234 10.75 0.65234 12.703 0 1.9601-0.97772 3.5872-3.582 4.2383-2.6112 0.6511-16.215-0.72744-16.125 3.0059 0.097 3.7264 0.23633 6.5117 0.23633 6.5117s0.20025 7.141 0.26953 10.777c0.0623 3.6433 0.5332 26.971 0.5332 26.971s-20.266-23.799-31.002-23.834c-7.8268-0.0227-32.152 23.6-32.152 23.6s-1.254-15.508-1.1016-22.836c0.15931-7.3281 4.1e-4 -11.79-0.041-15.094-0.0348-3.3108 2.8403-7.7357-2.1328-8.2344-4.9731-0.49867-8.5342-0.45715-12.648-0.59571-4.1072-0.1387-5.2142-2.224-4.8887-4.5098 0.32553-2.2788 1.3073-6.8367 0.65625-9.7734-0.658-2.9298 1.6287-6.1844 4.5586-7.168 2.9368-0.97663 13.36-2.2799 16.941-2.6055 3.5878-0.32541 6.5176-1.3008 6.5176-1.3008s-8.4701-1.9537-11.732-3.2559c-3.2554-1.3091-3.582-3.9133-3.582-5.541s-0.64982-15.966 0.65235-17.594c1.3091-1.6345 5.5409-3.9128 11.082-4.2383-4.5645-2.6043-12.711-2.6048-18.252-2.2793-5.5342 0.32553-7.1683-0.97603-7.8125-3.2617-0.65107-2.2788-0.98354-16.616 0-19.221 0.96969-2.6043 4.5585-3.2561 10.1-3.9141 5.5342-0.64415 11.4-2.9297 11.4-2.9297s-4.3994-1.2196-6.1934-2.2793c-3.2554-1.9602-1.9531-14.01-1.9531-17.266 0-3.2623 2.6118-5.2174 4.8906-5.543 2.2788-0.32553 6.8354-0.97531 9.1211-0.32422 2.2788 0.65109 3.2559 2.2793 2.2793 4.2324-0.97662 1.9602-0.97656 18.576-0.97656 18.576s3.4574-20.613 12.254-23.875c4.3982-1.6277 8.5838-2.2583 12.078-2.2773zm81.104 1.3496c3.4397 0.037 3.6798 1.6782 3.3848 4.9297-0.32553 3.5809-6.5e-4 28.344-0.32617 35.838-0.32553 7.4943-0.32422 43.332-0.32422 48.873 0 5.5411-0.32617 17.384-0.32617 20.32 0 2.9299-1.3019 4.5579-3.9062 4.2324-2.6112-0.32542-14.012 0-16.941 0-2.9368 0-4.2389-1.6277-4.5645-4.5645-0.32553-2.9298-1e-3 -9.558 0.32422-12.82 0.32553-3.2623 3.2629-3.9128 5.8672-4.2383 2.6043-0.32542 4.6054-0.59695 6.5586-1.248 1.9532-0.65106 5.7715-0.33789 5.7715-0.33789v-3.3945l-36.115-0.87891s-0.65169-20.205-0.32617-23.135c0.32553-2.9368 5.8677-2.9362 8.1465-3.2617 2.2788-0.32553 29.645-0.97656 29.645-0.97656l-0.33204-2.9727s-13.022 0.0423-16.277-0.2832c-3.2623-0.32553-3.5872-0.65873-4.2383-2.9375-0.65108-2.2788-2.6056-18.244-0.65234-20.197s5.1744-3.5392 8.7969-3.9062c4.9039-0.50563 12.377-0.98242 12.377-0.98242l-0.3457-2.916s-6.3386-0.69414-13.244 0.33789c-7.3419 1.0944-16.989-0.89939-20.293-0.67774-4.8831 0.32553-5.2148-0.97654-5.2148-5.541 0-4.5576 0.65625-17.92 0.65625-17.92s36.164-0.97524 40.729-1.3008c0.42727-0.0306 0.81605-0.0449 1.1719-0.041zm-163.43 1.0176c2.6043 0 8.796 0.6497 16.941 1.3008s19.873 0 19.873 0 0.32554 16.943 0 18.896c-0.32553 1.9532-0.65154 3.2617-3.2558 3.2617-2.6043 0-31.418 2.3613-31.418 2.3613l0.33984 2.377s11.532 2.1048 15.113 1.7793c3.5809-0.32553 4.5631 2.2792 4.8887 4.2324 0.32553 1.9532 0.65172 5.216 0.32618 8.7969-0.32554 3.5879 5.8e-4 6.843-0.6504 8.4707-0.658 1.6346-2.287 2.6035-4.2402 2.6035s-16.457 1.6074-16.457 1.6074l0.67969 4.4121s10.037 0.66538 14.602 0.33984c4.5576-0.32553 10.298-0.48568 12.258-0.16016 1.9532 0.31862 4.5592 0.97071 5.8613 0.97071 1.3022 0 2.6035 1.3078 2.6035 3.9121s-0.32617 13.687-0.32617 15.314c0 1.6277-2.6027 4.24-5.207 4.5586-2.6043 0.33249-24.098 2.5404-26.059 2.2148-1.9532-0.32542-5.7695-0.33789-5.7695-0.33789l-0.33789 3.3926s10.632 0.33985 13.236 0.33985c2.6112 0 10.133 1.2324 10.133 1.2324s1.3008 15.64 0.32422 17.926c-0.97663 2.2788-1.6276 6.2129-6.5176 6.2129s-18.902 0.65234-20.529 0.65234c-1.6277 0-2.2793 0.32424-2.2793-1.6289 0-1.9533 0.97657-25.439 0.97657-30.004 0-4.5575-0.43555-8.4295-0.43555-11.359s0.32553-10.943 0-12.896c-0.32546-1.9532 1.0872-7.3508 0.76172-9.9551s6.1e-4 -10.749 0.32617-13.686c0.32553-2.9298-0.39586-19.331-0.0703-24.221 0.32553-4.8831 0.33984-7.8836 0.33984-9.8438 0-1.9532 1.3644-3.0742 3.9688-3.0742zm79.086 7.3906c-12.618 0.3479-10.774 15.439-10.459 18.908 0.32554 3.5879-1.3027 19.221-1.3027 30.629s0.97852 47.569 0.97852 48.871-1.1e-4 2.6055 1.9531 2.6055c1.9602 0 16.297-7.5e-4 19.227-0.32617s3.582-1.302 3.582-2.9297-0.32617-10.75-0.32617-20.855c0-10.099 0.65039-47.237 0.65039-51.15 0-4.5645 1e-3 -11.075-1.3008-17.268-1.6692-7.903-6.8028-8.2283-11.734-8.4707-0.43766-0.0203-0.86055-0.0249-1.2676-0.0137zm279.82 1.5781c1.8538 9e-3 3.4152 0.47043 1.7774 2.1133-2.2857 2.2788-5.2148 5.8594-5.2148 5.8594s-12.711 1.3027-16.943 1.3027c-4.2389 0-30.302 1.3021-40.727 0.97656-10.424-0.31862-33.884 6.2e-4 -38.123 0.32617-4.2389 0.32553-9.7721-2e-3 -11.074-0.97852-1.3022-0.97661-7.4947 0-9.7734 0-2.2857 0-4.2389-2.6041-5.541-3.9062-1.3091-1.3022-0.32563-1.9597 1.9531-2.2852 2.2788-0.32553 20.849-0.97656 25.088-0.97656s9.7721 0.32487 14.662 0.65039c4.8831 0.32553 21.182 0.32684 30.297-0.32422 9.129-0.64416 18.577-1.6289 26.396-1.6289 7.8198 0 22.807-0.65102 25.086-0.97656 0.64093-0.0916 1.4113-0.1559 2.1367-0.15234zm-556.29 8.2207c0.27991 2e-3 0.58539 0.0272 0.91601 0.0781 2.916 0.45022 19.228 0.97657 25.746 0.97657 6.5108 0 19.22-0.97789 24.436-0.65235 5.2086 0.32553 23.453 1.3104 28.018 0.65235 4.5576-0.65109 16.289 0.32573 20.854 0.6582 4.5576 0.31861 15.307-0.65947 20.197-1.3106 4.89-0.65107 10.751 0.97734 9.4492 2.9375-1.3022 1.9463-3.9075 5.5332-9.123 5.5332-5.2156 0-29.326 0.65172-38.115 0.32617-8.8034-0.32553-41.378-1.3021-50.5-0.97656-9.1289 0.32553-17.926 0.32553-22.158 0-4.2389-0.32554-8.4771-2.6041-10.756-3.9063-2.1007-1.2068-2.2657-4.3436 1.0371-4.3164zm492.21 8.8418c12.883-0.0696 20.682 7.8311 24.158 17.299 0.31861-3.2554 1.294-12.05-6.1934-16.289 15.633-0.32553 24.429-0.32617 28.668-0.32617 4.232 0 7.8197 0.32622 7.4941 3.9141-0.32542 3.5809 0.32699 18.243-0.32422 23.451-0.6511 5.2156-1e-3 23.786 0.32422 28.025 0.32542 4.2389-0.32422 21.506-0.32422 22.809s-0.65221 3.5866-2.6055 3.9121c-1.9532 0.32541-18.735 0.92251-20.369 1.248-1.6277 0.32542-2.3555 4.3139-2.3555 6.5996 0 1.7731-0.93414 29.479-0.8164 35.359 0.11074 5.8805-1.0685 9.4129-10.26 9.6484-7.1411 0.18028-31.813 1.0259-34.639 0.98437-2.8329-0.0416-5.7555-1.2192-5.707-6.6426 0.0484-5.4164 0.74132-25.42 0.27734-34.979-0.46409-9.5584-3.76-11.208-8.2344-11.242-1.9602 0-16.618 0.31918-19.555-0.33203-2.9298-0.64415-3.5801-1.3026-3.5801-4.2324 0-2.9367 1.6276-13.687 0.97656-16.291s-0.97593-31.279-0.65039-33.883c0.32553-2.6112 0.65039-27.041 0.65039-27.041s25.744-0.32486 28.342-0.65039c2.6112-0.33248 4.5652-0.33391 2.9375 2.2774-1.6346 2.6043-2.605 7.8137-2.9375 14.006 5.2156-7.4943 9.1026-16.943 23.461-17.594 0.42622-0.0189 0.84612-0.029 1.2617-0.0312zm-430.87 6.8457c0.38508-1e-3 0.77119 9e-3 1.1582 0.0293 6.1922 0.32553 12.711 1.3032 17.594 8.1465 5.929 8.3116 4.8886 11.4 5.8652 18.568 1.9532-6.5108 2.3002-16.123-0.65039-22.156-1.2467-2.5004-0.9761-3.907 2.2793-3.2559 3.2554 0.65107 14.662 0.97726 19.227 0.32617 4.5576-0.65107 6.5116-1e-3 8.4648 0.32422 1.9602 0.32553 3.9128 0.32678 3.2617 5.2168-0.65108 4.89 0.32617 30.952 0.32617 38.121 0 7.1688-0.65171 26.065-0.32617 28.344 0.32554 2.2857 1.3021 4.2381-3.5879 3.5801-2.9091-0.38094-14.414 0.90175-17.988 0.42383-5.0978-0.68572-10.84 0.94027-11.311 2.8242-1.3437 5.3749-1.6484 36.398-1.6484 41.953 0 7.5359-3.0402 8.7269-31.979 7.9512-7.2173-0.19389-14.192-0.94834-14.643-6.9258-0.45022-5.9774-0.0202-36.772-0.3457-39.383-0.32553-2.6043-0.32602-5.2089-3.2559-6.1856-2.9368-0.97659-18.854-1.9531-20.814-1.9531-1.9463 0-2.9225-0.98297-3.248-3.2617-0.33245-2.2788 0.97008-20.197 0.64453-24.762-0.31861-4.5645-0.31797-17.594 0.32617-20.85 0.65801-3.2623 0.33203-12.058 0.33203-15.32v-10.098s9.7738 1.3008 14.982 1.3008c5.2155 0 8.4777-0.32486 11.082-0.65039s4.8829 0.32625 2.9297 2.9375c-1.9532 2.6043-5.5339 12.051-4.8828 20.848 1.9532-10.099 6.1912-17.919 10.098-20.523 4.7922-3.2078 10.333-5.5574 16.109-5.5703zm429.8 1.9629c-11.289 0.16127-16.513 12.337-17.459 20.221-0.97659 8.1454-0.65039 32.913-0.65039 36.494 0 3.5879-0.32617 12.377-0.32617 12.377s9.7731 1e-3 14.656 0.33398c4.89 0.32542 15.966-1.3106 18.252-1.3106 2.2788 0 3.2539-0.65025 3.2539-2.6035 0-1.9532-0.32542-6.5186 0-15.641 0.3326-9.122 0.65917-29.325-0.32422-37.145-0.97659-7.8129-7.834-12.253-16.291-12.703-0.37684-0.0203-0.74717-0.0286-1.1113-0.0234zm-427.62 4.2402c-0.45115-0.0101-0.90156-3e-3 -1.3496 0.0176-7.1618 0.32553-8.1456 2.2857-11.727 4.5645-3.5879 2.2788-4.5637 3.5793-6.1914 10.748-1.6277 7.1688-0.97656 22.809-0.97656 28.676 0 5.8597-6.9e-4 11.727 0.65039 19.547 10.099 2.2788 32.582 0.32422 32.582 0.32422s1.3021-27.69 0.97656-44.307c-0.30519-15.578-7.1976-19.419-13.965-19.57zm494.21 74.117c0.0533-1e-3 0.10567-1e-3 0.15821 0 1.223 0.0265 2.1406 0.66289 2.1406 2.7891 0 3.5879 0.65166 31.93 0.32617 36.82-0.32542 4.89 0.97542 8.47-6.1934 9.1211-7.1688 0.6511-22.149 0.32617-24.109 0.32617-1.9533 0-2.9303 7.7e-4 -3.2559-2.6035-0.32542-2.6043 1.3021-15.316 0.97656-20.531-0.32542-5.2156-0.32617-22.801-0.32617-22.801s12.052-1.6348 16.291-1.6348c4.2389 0 9.1225-0.32543 11.408-0.97656 0.86789-0.24794 1.7835-0.49563 2.584-0.50977zm-568.21 0.83789s18.568 1.3014 23.133 1.627c4.5645 0.32541 8.1457 0.65794 10.75 0.97656 2.6043 0.32541 4.2402 0.32544 4.2402 3.5879 0 3.2623 0.97532 14.664 0.32422 18.57-0.65107 3.9134 1.3015 13.035 0.65039 15.965-0.65108 2.9368-0.97593 5.5409-0.65039 7.4941 0.32557 1.9532 1.9544 4.5658-1.959 4.2402-3.9065-0.32542-29.646-0.98435-32.908-1.9609-3.2554-0.97663-3.5807-2.9296-3.9062-4.8828-0.32553-1.9532-0.65165-21.832-0.32617-24.443 0.32553-2.6043 0.65234-21.174 0.65234-21.174zm110.99 1.6934c4.5811 4e-3 10.879 0.11824 14.441 0.42578 5.7073 0.48484 18.737 0.80991 21.016 0.48438 2.2857-0.31862 4.2385 0.49177 4.0723 3.5879-0.15931 3.0961-0.16015 42.521-0.16015 44.959 0 2.445 0.65237 4.2402-3.9121 4.2402-4.5575 0-27.042 0.32466-33.234-0.32617-6.1852-0.6511-10.748-0.97657-10.748-0.97657s0.64955-47.737 0.49024-49.85c-0.16623-2.1195 1.1371-2.2849 2.6055-2.4512 0.55064-0.0597 2.681-0.0964 5.4297-0.0938zm351.01 0.3711v2e-3c1.5024 1e-3 2.6455 0.0653 3.2559 0.21875 3.9134 0.96971 7.502 2.3e-4 7.502 5.209 0 5.2156-0.65102 34.535-0.97656 37.797-0.32553 3.2554 0.32561 5.2084-5.541 4.8828-5.8666-0.32542-24.112 0.65234-28.344 0.65234-4.2389 0-7.1745-0.32679-7.5-2.6055-0.32553-2.2788 0.98286-37.471 0.65039-39.75-0.32553-2.2788 0.65809-3.9069 2.6113-4.2324 1.648-0.27477 20.229-2.177 28.342-2.1738zm-99.283 1.6211v2e-3c2.9669 0 5.2066 0.0622 6.1035 0.22656 3.5809 0.65107 4.8828 0.64952 4.8828 4.2305 0 3.5878-0.31836 37.146-0.31836 39.1s0.91488 6.6365-3.2617 4.5586c-2.6112-1.3022-8.4725 0.33203-11.402 0.33203h-25.418c-3.5809 0-5.86-9e-5 -6.1856-2.6113-0.32553-2.6043 1.2943-17.918 0.96875-23.459-0.31861-5.5411-0.31901-13.356-0.64453-16.943-0.32553-3.5809 0.97069-4.8828 5.5352-4.8828 5.3922 0 20.84-0.55368 29.74-0.55273zm-116.26 1.7559c2.4752-1e-3 4.4102 0.71071 4.4102 3.3613 0 3.2554-0.65039 11.068-0.65039 19.539s0.32422 16.95 0.32422 19.229c0 2.2788-1.3013 3.5801-3.5801 3.5801-2.2857 0-36.821 7.9e-4 -39.1 0.32617-2.2788 0.32542-4.8899-0.32619-5.541-3.2559-0.65109-2.9298 0.65171-12.377 0.32617-19.221-0.32553-6.8432-0.65102-16.942-0.97656-18.902-0.32554-1.9532 0.65091-2.6042 2.9297-2.9297 2.2857-0.32542 14.662 0.32542 22.156 0 7.4943-0.32542 14.665-1.3015 17.92-1.627 0.61169-0.0609 1.2101-0.0996 1.7812-0.0996zm46.004 27.916c0.51051-8e-3 0.98484 0.0587 1.4121 0.20118 1.9602 0.65106 10.105 7.168 12.709 9.7793 2.6043 2.6043 16.292 14.33 18.57 15.307 2.2857 0.98355 6.8436 1.6361 8.7969 1.3106 1.9602-0.32542 25.737-7.9e-4 33.883-0.32617 8.1523-0.3326 47.251-1.3086 52.785-1.3086 5.5411 0 61.584 0.32467 66.467-0.32617 4.89-0.6511 17.599-1.9538 21.18-1.3027 3.5878 0.6511 30.63-1.9518 35.52-2.2774 4.8831-0.32541 6.8365 0.32505 12.703-0.32617 5.8666-0.65106 6.843 0 9.4473 0 2.6112 0 5.2154 2.2778 2.9297 4.5566-2.2788 2.2857-2.6053 4.5651-10.1 4.8906-7.4874 0.32542-15.631 0.65096-27.039 1.9531-11.401 1.3022-36.171 2.6113-46.27 2.6113-10.092 0-43.005 1.3033-58.645 1.6289-15.64 0.32541-86.996 0.32422-86.996 0.32422s11.076 12.051 14.338 16.941c3.2554 4.89 16.617 22.152 16.617 22.152s-2.9362-17.587-3.2617-19.547c-0.32554-1.9533 1.3085-3.2554 3.2617-3.5879 1.9532-0.32542 13.354-0.64453 15.965-0.64453 2.6043 0 4.2324 1.302 4.2324 3.9062 0 2.6112 0.65039 14.664 0.65039 14.664s2.9373-14.665 11.408-16.943c8.471-2.2788 12.703-0.98284 15.314-0.65039 2.6112 0.32542 8.4706 1.3014 10.424 6.1914 1.9532 4.8831 3.5879 8.4726 3.5879 8.4726s0.97007-9.7818 0.64453-12.061c-0.32553-2.2788 0.65741-4.5572 3.2617-4.8828 2.6112-0.3326 7.4953-1.3085 11.076 1.3027 3.5878 2.6043 4.5644 8.4707 4.5644 8.4707s-1e-3 -5.5408 4.8887-8.4707c11.075-5.8666 18.896 2.6035 18.896 2.6035s2.9288-4.8887 12.051-4.8887c9.129 0 12.711 7.8203 12.711 7.8203l1.627-8.1465s13.687-1.9531 25.088-2.9297c11.408-0.98354 34.215-1.6282 38.121-2.2793 3.9064-0.6511 6.5195 6.2e-4 6.5195 3.2559 0 3.2623 0.64972 11.081 0.32422 12.709-0.32541 1.6277 0.32639 2.9309-1.627 4.5586-1.9532 1.6346-12.704 8.1453-16.617 10.105-3.9134 1.9463-5.5408 3.9062-8.4707 4.8828-2.9298 0.97659-8.1458 5.8664-13.361 7.4941-2.9298 0.91426-12.709 9.1222-18.568 11.727-5.8666 2.6112-15.641 9.13-20.85 11.734-5.2225 2.6043-22.607 15.499-28.355 17.266-4.232 1.3022-10.424 6.1933-12.703 7.1699-1.3853 0.59569-11.76 6.7316-20.66 11.809-5.7697 3.2623-10.909 6.1234-12.578 6.7676-4.232 1.6277-16.942 7.8125-19.221 7.8125-2.2788 0-3.9075-0.97578-4.5586-2.6035-0.27704-0.69264-1.0242-5.6043-2.3887-11.977h-2e-3c-1.8494-8.6576-4.8402-19.995-9.3418-27.121-7.8199-12.384-4.8834-12.058-6.1856-14.012-1.3022-1.9532-2.9361-6.1913-4.2383-7.168-1.3022-0.97663-1.6295-5.2091-2.9316-6.8438-1.3091-1.6276-4.5644-4.2317-5.541-5.8594-0.97661-1.6346-0.65027-2.6112-2.6035-5.541-1.9602-2.9368-14.989-20.53-19.879-26.064-4.89-5.5411-13.68-15.966-17.268-18.902-3.5809-2.9298-10.098-10.099-14.33-12.703-4.2389-2.6112-7.5019-4.8888-9.4551-6.5234-1.8617-1.5448-4.3146-5.1718-7.3652-5.2266-0.15004-3e-3 -0.30215 2e-3 -0.45507 0.0176-3.2554 0.32542-10.423 4.8905-13.027 6.8438-2.6112 1.9532-12.059 10.749-15.314 12.709-3.2623 1.9532-8.4714 7.1692-11.408 9.7734-2.9298 2.6043-14.338 13.686-18.244 17.918-3.9065 4.232-20.197 24.762-21.832 27.699-1.6277 2.9298-10.424 15.307-14.656 24.762-3.8995 8.6856-8.892 27.012-10.43 36.238l-8e-3 4e-3c-0.1316 0.81041-0.24216 1.5451-0.31836 2.2031-0.97662 8.1454-1.9531 13.686-1.9531 13.686l-2.6035 0.97656s-14.996-7.1684-21.832-10.424c-3.2069-1.5307-7.3484-4.06-11.109-6.4219-4.2528-2.6528-8.0366-5.1172-9.4219-5.6367-2.6043-0.9766-4.8823-2.6103-7.168-4.5566-2.2788-1.9601-12.053-4.5653-14.006-6.5254-1.9532-1.9532-11.075-7.1621-15.965-10.75-4.89-3.5809-21.507-11.725-25.746-15.312-4.232-3.5809-10.749-5.5422-12.051-7.1699-1.3022-1.6277-8.7982-7.8202-13.037-8.7969-4.232-0.97659-1.6262-2.6028-3.2539-3.2539-1.6277-0.65801-7.8203-1.9615-8.7969-3.2637-0.97661-1.3022-10.425-6.5175-13.688-8.4707-3.2623-1.9533-14.988-10.098-14.988-10.098s1e-3 -14.664-0.32422-16.617c-0.32553-1.9532 2.2775-2.2793 3.9121-2.2793 1.6277 0 21.833 0.65205 25.088 0.9707 3.2554 0.32542 27.365 2.2858 30.953 2.6113 3.5809 0.32542 11.727 0.32422 11.727 0.32422l0.97657 8.7969s2.6111-5.8602 6.5176-6.8438c3.9065-0.97663 9.4559-2.6032 17.92 2.6055 11.733-6.1852 11.732-3.9076 14.336-3.582 2.6043 0.32542 7.1691-0.64948 9.7734 10.426 1.6346-6.1852 4.2388-8.4648 7.4941-8.4648s10.1 0.32617 10.1 0.32617-2.2793 4.8815-2.2793 9.7715c0 4.8831 0.65821 7.8203 0.65821 7.8203s3.5799-11.732 7.4863-13.686c3.9134-1.9532 11.735-4.2325 14.99-3.2559s9.1219 0.31863 11.082 1.9531c1.9532 1.6277 7.8121 8.1449 8.1445 16.941 1.9532-12.052-0.98358-16.29-3.5879-19.871 7.1688-0.65802 12.378 1.2949 15.314 1.2949 2.9299 0 5.8671-0.64453 7.8203-0.64453s3.9066 0.96948 2.6113 3.9062c-1.3091 2.9368-5.541 21.508-5.541 21.508s11.075-15.966 14.33-19.879c3.2623-3.9064 14.988-17.918 14.988-17.918s-10.424 1.9512-13.354 0.97461c-2.9368-0.97659-22.158-0.65039-29.652-0.65039-7.4943 0-32.581 2.2781-47.244 0.65039-14.663-1.6277-29.326-0.97585-36.162-1.627-6.8432-0.65106-38.775-2.6042-45.943-1.9531-7.1687 0.65102-18.894-0.32544-25.412-1.9531-6.5177-1.6346-17.275-0.32617-20.855-0.32617-3.5809 0-11.725-2.2845-13.686-2.9356-1.9532-0.6511-6.1857-1.3026-7.8203-3.2559-1.6277-1.9533 0.33122-5.2155 2.9356-5.541 2.6043-0.32542 17.594 1.9525 24.111 1.627 6.5177-0.32542 32.256 0.97656 40.076 0.97656 7.8198 0 25.087 0.65253 36.82 1.3106 11.726 0.6511 29.646-0.98434 36.814-0.32617 7.1688 0.65106 14.011 1.9531 23.133 1.9531s35.845-0.97716 44.635-1.3027c8.7965-0.32542 49.529-0.65039 49.529-0.65039s17.267-13.687 20.848-16.291c3.5878-2.6112 8.1472-5.5409 11.084-7.4941 2.289-1.5314 4.5772-2.4627 6.4004-2.4863zm-0.62695 21.254v2e-3c0.9146 8e-3 1.8267 0.32523 2.6914 1.1055 3.2623 2.9298 12.751 11.012 16.297 14.33 5.5342 5.2156 18.896 17.926 23.779 24.77 4.89 6.8363 9.4537 7.4927 10.756 9.7715 1.3022 2.2788 3.913 10.1 7.8125 13.355 3.9134 3.2623 3.5884 6.8425 5.8672 10.756 2.2857 3.9064 10.432 15.965 12.385 22.15 1.2398 3.9758 5.8665 8.1535 6.5176 11.734 0.47792 2.6389 3.7752 12.013 5.8809 17.672 0.75497 2.0017 1.3571 3.5536 1.6133 4.1562 0.97662 2.2857 0.97656 8.7969 0.97656 8.7969s-5.5334-0.97656-7.168-0.97656c-1.6277 0-2.9372-0.3264-3.2559-5.5352-0.0554-0.73417-0.96883-3.3164-2.1602-6.4609h-8e-3c-1.6616-4.4161-3.8655-9.8979-5-12.928-1.9602-5.2156-6.519-16.132-8.8047-18.736-2.2788-2.6043-6.1848-11.733-7.8125-14.012-1.6346-2.2788-2.9298-7.494-5.541-9.4473-2.6112-1.9532-6.1926-7.8208-7.8203-10.1-1.6277-2.2857-3.5877-7.1692-7.4941-7.8203-2.161-0.36699-3.5878-4.2382-5.541-6.1914-1.9602-1.9533-4.563-8.145-6.8418-10.424-2.2788-2.2857-7.1629-5.5416-9.123-7.8203-1.9532-2.2857-6.5168-4.2394-8.1445-6.8438s-4.8899-4.8836-6.5176-6.8438c-0.71212-0.85452-1.7365-1.3343-2.8809-1.3594-1.4714-0.034-3.1425 0.68987-4.6074 2.3379-2.6112 2.9368-9.1288 6.8413-11.082 8.1504-1.9532 1.2952-15.314 14.005-19.871 19.221-4.5645 5.2086-14.665 15.96-18.578 19.873-3.9065 3.9134-7.4934 8.4712-9.1211 10.75-1.6277 2.2857-5.8671 11.407-7.8203 13.686-1.9532 2.2788-6.1913 12.059-8.1445 16.291-1.5584 3.3801-5.3954 15.253-7.0508 22.234l-2e-3 2e-3c-0.4225 1.7732-0.69831 3.2331-0.76757 4.1543-0.32553 4.5645-1.6289 12.061-1.6289 12.061s-3.2544-0.32617-5.5332-0.32617c-2.2857 0-5.2168 0.65039-5.2168 0.65039s0.24923-8.1939 1.2812-16.533v-2e-3c0.63723-5.1671 1.5798-10.396 2.9512-13.77 3.5878-8.7965 6.192-14.656 6.5176-16.291 0.32553-1.6277 2.9297-3.2559 2.9297-3.2559l0.6582-1.9531s5.8394-13.057 7.8203-14.664c5.2086-4.232 7.4864-13.034 10.098-16.289 2.6043-3.2623 26.632-26.883 28.994-30.305 3.5879-5.2155 28.676-22.807 30.955-25.086 1.6735-1.6735 4.2273-4.0542 6.7559-4.0371zm-192.22 34.295c-2.0855-0.14311-4.1341 0.76073-6.3008 2.791-4.9524 4.6476 1.2406 10.216 2.7852 11.145 1.5446 0.92814 2.1688 2.1684 0.3125 3.4082-1.8563 1.2329-5.2652 7.7379-1.8574 10.834 3.4008 3.0892 7.1133 5.5672 13.617-0.92969 3.0961 2.1679 7.7378 6.1936 13.307 1.2344 5.5757-4.9524-1.2336-10.833-2.7852-12.689 3.4078-3.0961 10.216-8.0484 4.0234-13.617-4.232-3.8095-10.216 1.2402-14.545 3.4082-3.1324-3.4831-5.8752-5.4-8.5566-5.584zm387.5 1.6738c-3.7002-0.0942-6.9834 2.9161-8.6016 4.2676-1.8632 1.5515-2.7922 0.6169-4.6484-1.2324-1.8563-1.8563-9.8478-3.4074-12.383-0.62305-6.1852 6.8086 5.5742 13.312 5.5742 13.312s-8.9758 6.8082-4.0234 12.377c4.9524 5.5758 11.893 0.0976 12.689-1.2324 0.46407-0.77575 1.3914-0.77679 1.8555-0.16016 0.93506 1.2398 6.9264 6.3461 11.145 2.9453 6.4969-5.264 2.32-10.993 0.77539-12.537-1.5515-1.5446-1.7027-2.3199-0.46289-3.248 1.2398-0.93505 1.5438-1.2399 4.0234-4.3359 2.4727-3.0961-0.19391-8.0839-4.3359-9.2891-0.54198-0.15411-1.0788-0.23068-1.6074-0.24414zm-317.7 1.9531c-6.1852-0.32541-11.401 6.8438-12.703 11.408-1.3091 4.5575-1.309 25.732-0.97656 28.018 0.32553 2.2788-0.98438 3.2553-0.98438 6.5176 0 3.2554 6.4e-4 26.48 0.32617 30.061 0.32553 3.5879 1.3085 4.2382 3.2617 5.2148 1.9532 0.97659 5.9571 3.6436 7.8203 4.2324 2.2649 0.72725 7.3076 3.6436 10.078 4.4609 2.8814 0.84503 4.75-2.3002 4.75-4.5859 0-2.2788-0.16602-14.365-0.16602-17.295 0-2.9299 1.3032-6.4488 0.97071-21.438-0.31862-14.989 0.33203-24.761 0.33203-33.232 0-8.4709-6.5168-13.036-12.709-13.361zm246.22 1.9102c-1.2879-0.0357-2.59 0.0449-3.8125 0.0449-9.7731 0-11.403 8.4704-12.061 13.354-0.64415 4.89-0.97654 23.316-1.0527 29.189-0.1039 8.2077 0.73437 22.621 0.73437 27.186 0 4.5575 0.0759 15.592 0.39453 18.521 0.32553 2.9298 2.6681 3.3373 4.3027 2.0352 1.6277-1.3022 10.611-4.9244 12.246-6.2266 1.6277-1.3022 1.9523-1.6269 4.5566-2.6035 2.6112-0.97663 2.9372-2.2794 3.2559-4.8906 0.32553-2.6043 0.65039-20.523 0.65039-28.668 0-8.1454 0.65869-29.001-0.65039-39.1-0.97662-7.574-4.7008-8.7347-8.5644-8.8418zm-122.55 3.625c-1.2225 0.0125-2.6318 0.25967-4.2578 0.72461-4.3359 1.2398-4.6407 6.1918-4.3359 7.7363 0.3117 1.5515 0.0207 2.6101-2.0156 2.4785-4.9316-0.33259-7.7293 2.161-8.041 6.8086s2.2995 7.2588 6.8086 6.8086c2.0156-0.1731 2.9445 0.90814 2.7852 2.6328-0.38788 4.142 0.15974 8.2008 7.8965 8.8242 7.7367 0.61644 7.425-7.4317 7.1133-9.5996-0.30475-2.161 1.087-1.7397 3.0957-1.8574 5.4233-0.30463 7.8741-3.3855 7.1191-7.8945-0.658-3.9065-6.0313-6.152-8.1992-5.875-2.4796 0.31181-3.2485-0.46292-2.0156-2.6309 0.69956-1.2052 0.62189-4.0254-1.2344-6.1934-1.1602-1.355-2.6813-1.9837-4.7188-1.9629zm289.76 3.3477c0.68089 3e-3 1.4654 0.47675 2.3223 1.5449 2.6043 3.2554 5.8671 5.8657 6.8438 8.1445 0.97659 2.2788 4.5586 9.4473 4.5586 9.4473s-9.1225 5.5415-12.385 7.8203c-3.2554 2.2788-13.355 9.4472-15.959 10.424-2.6043 0.97659-8.8026 2.6125-11.732 5.2168-2.9368 2.6043-23.134 14.336-25.738 16.289-2.6112 1.9533-13.036 7.821-14.664 8.1465-1.6277 0.32542-7.4933 3.58-10.098 5.5332-1.6415 1.2398-5.8802 4.052-9.5234 6.2754-2.1333 1.2675-4.0581 2.3686-5.1387 2.8535-2.9298 1.3022-20.529 12.052-22.482 13.361-1.9602 1.3022-5.8664 0.97778-7.4941 2.6055-1.6277 1.6277-9.774 4.889-12.053 6.5098-2.2857 1.6346-13.361 8.1517-15.314 8.8027-1.9532 0.6511-15.542 8.7345-17.6 9.7734-3.9065 1.9532-15.633 9.4492-15.633 9.4492l-1.3086-1.6289s0.6582-5.5403 0.6582-7.168 0.32553-4.1503 0-6.1035c-0.33245-1.9532 0.32602-3.5801 3.2559-3.5801 2.9298 0 17.918-0.65039 17.918-0.65039s0.32553-6.8432 0-9.1289c-0.32553-2.2788 0.65155-4.2331 3.2559-4.5586 2.6112-0.32541 18.576-0.32542 20.529-0.97656 1.9532-0.65106 3.5879-0.32484 3.5879-2.6035 0-2.2788 0.32422-13.688 0.32422-13.688s18.895-0.64991 21.174-0.32422c2.0567 0.28989 3.8598-1.0105 4.4277-2.9453h4e-3c0.0554-0.22148 0.10511-0.42786 0.13281-0.64257 0.32554-2.2788 0-5.6312 0-7.252 0-1.6346 4e-5 -1.3105 1.9531-1.3105 1.9533 0 17.433-0.71246 20.203-0.96875 3.2554-0.33222 4.5573-0.9829 4.8828-4.2383 0.32541-3.2623 0-9.123 0-9.123s1.5e-4 -2.2852 1.6348-2.2852c1.6277 0 14.656-2.6056 20.197-0.65234 3.4424 1.226 2.6113-1.6275 2.6113-2.9297s0.32617-6.8417 0.32617-8.7949 1.2956-3.2634 4.2324-3.582c2.9298-0.3326 14.662 0.31918 17.592-0.33203 2.9368-0.6511 4.2324-0.97707 4.2324-3.2559v-10.432c0-1.6277 0.97661-2.9297 3.5879-2.9297 2.6043 0 23.135-1.3008 23.135-1.3008s0.65103-9.7748 0.97656-14.014c0.21883-2.8434 1.1722-4.805 2.5664-4.7988zm-576.66 1.2188s1.1352 10.425 0.65039 13.361c-0.33248 1.9533 1.6282 3.5814 3.2559 3.2559 1.6277-0.32542 21.506 0.65039 21.506 0.65039s0.54844 9.772 0.65234 12.051c0.15931 3.7472-0.49115 5.2168 4.8906 4.2402 4.8-0.87273 15.305 0.32542 17.266 0 1.9532-0.32542 3.582 0.32506 3.582 2.2852 0 1.9532 6.1e-4 7.1626 0.32617 9.4414 0.32553 2.2857 0.32472 3.1016 2.6035 3.1016 2.2857 0 21.348 0.48632 21.348 0.48632s-0.16734 9.121 0.1582 11.074c0.32554 1.9532 0.65101 4.8906 5.541 4.8906s15.314-0.32617 17.268-0.32617c1.9532 0 2.9372 0.97743 3.2559 2.9375 0.32554 1.9463 0 6.1854 0 8.1387 0 0.65801-0.0347 1.3848 0.0762 2.0566h6e-3c0.22684 1.3332 1.0288 2.3932 3.832 2.1797 4.232-0.32542 13.036-0.32422 15.641-0.32422s5.2084 0.97643 4.8828 2.9297c-0.31862 1.9601-0.31862 4.5363 0 7.1406 0.32553 2.6043 1.9532 4.2396 4.5644 3.9141 2.6043-0.32541 12.703 0.65039 16.291 0.65039 3.5809 0 4.8822 2.2785 4.5566 4.8828-0.32553 2.6112 1.3106 11.082 1.3106 11.082s12.703 0.32617 15.965 0.32617c3.2554 0 3.9056 0.97569 4.5566 4.5566 0.65107 3.5878 0.97656 14.365 0.97656 14.365s-15.964-8.7954-19.545-11.074c-3.5879-2.2788-20.855-11.726-24.762-14.012-3.9134-2.2788-20.857-14.013-24.438-15.641-3.5879-1.6277-11.406-5.541-11.406-5.541s-2.2805-2.2793-3.9082-3.2559c-1.6277-0.97663-3.254-0.32404-4.8887-1.3008-0.30476-0.18028-0.69343-0.49296-1.1367-0.88085-1.9186-1.6623-4.9533-4.8471-7.3359-5.6367-2.9298-0.9766-12.378-6.192-15.641-7.4941-3.2554-1.3022-13.027-8.4707-13.027-8.4707s-1.302 7e-5 -2.9297-0.97656c-1.6346-0.97659-4.8914-3.9127-7.8281-5.2148-2.9299-1.3021-14.656-8.1458-16.609-9.7734-1.9602-1.6277-11.081-8.4722-15.971-9.7812-4.8831-1.3022-3.9068-4.231-6.1856-5.5332-2.2857-1.3021-9.7799-6.5176-11.082-7.4941-1.3022-0.97663-1.9545-1.302-0.65234-2.9297 1.3022-1.6346 12.385-14.338 12.385-14.338zm121.53 21.74c-7.1688 6.5177-16.292 2.2794-17.92 1.3027-1.6277-0.97663-1.6277-1.954-4.5644-0.32618-2.9298 1.6277-7.8125 4.2396-15.965-0.65039 1.6346 3.2554 1.6344 6.5168 7.4941 8.1445 5.8666 1.6277 8.7964-2.2773 10.105-2.2773 1.3022 0 1.9543 2.6035 9.123 2.6035s8.7967-4.5649 11.727-8.7969zm349.28 1.3008c-1.3022 0-2.929 2.2792-7.168 3.2559-4.232 0.98355-8.47-0.97653-10.098-1.9531-1.6277-0.97663-2.5281-0.14536-0.97656 1.6348 1.1428 1.3022 2.7418 4.5585 8.3106 5.5352 8.2631 1.4684 10.908-2.2793 10.908-2.2793s5.459 3.4566 10.1 2.4453c7.4944-1.6277 8.1445-7.9863 8.1445-7.9863s-5.5332 3.0964-10.098 2.4453c-4.5645-0.65106-7.8209-3.0977-9.123-3.0977zm-471.78 11.494s13.029 7.4934 16.291 9.1211c3.2554 1.6277 11.402 6.5175 14.006 8.4707 2.6112 1.9602 14.012 8.4715 16.941 10.432 2.9368 1.9532 8.1446 2.9302 10.756 5.209 2.6043 2.2857 8.1464 6.1927 10.1 6.8438 1.5861 0.52641 4.4671 2.3468 5.4922 3.0117h4e-3c0.23383 0.15156 0.3711 0.24805 0.3711 0.24805s-14.338 7.9e-4 -18.902 0.32617c-4.5645 0.32542-45.479 1.9043-47.113 1.9043-1.6277 0-2.2773 7.6e-4 -2.2773 1.9609 0 1.9532 0.22707 1.3366 2.5059 1.6621 2.2788 0.32541 14.956 1.3158 18.869 0.99023 3.9065-0.32542 11.725 0.32617 11.725 0.32617s1.3027 30.62 1.3027 32.58c0 1.9533 0.32564 3.2565-1.9531 3.582-2.2788 0.32542-28.342 1.3014-29.977 1.627-1.6277 0.33259-1.462 2.6126-1.3027 3.2637 0.81038 1.6277 6.518 1.3021 9.7734 0.97656 3.2623-0.32542 19.228 0 22.809 0 3.5809 0 16.941-0.32543 19.553-0.97656 2.6043-0.6511 5.8588-0.65187 5.5332 2.6035-0.32554 3.2554 1e-3 25.413-0.32422 27.691-0.32554 2.2857 1.6334 5.2156-2.6055 4.5644-2.6459-0.40172-15.64-1.6283-19.221-1.3027-3.5879 0.32542-19.552 2.2793-23.791 2.2793-4.232 0-8.1106-6.8e-4 -9.7383 0.65039-1.6346 0.65109-1.262 2.5498 0.47656 2.7715 1.6831 0.20787 6.0053 0.16652 8.291 0.81055 2.2788 0.65801 13.382 1.2122 16.318 0.88672 2.9298-0.32542 7.1348 0.74804 7.1348 0.74804s-0.65039 34.535-0.65039 35.844c0 1.2952-4e-4 2.9297-2.2793 2.9297-2.2788 0-31.605 0.64453-34.535 0.64453s-3.5796 1e-4 -3.9121-1.9531c-0.32553-1.9533-4.2e-4 -22.484 0.33203-26.064 0.32553-3.581 0.64974-24.43 0.32422-29.652-0.32553-5.2086-0.65688-21.174-0.98242-24.762-0.32553-3.581 0.6582-15.307 0.6582-18.895 0-3.581 0.32599-22.482-0.33203-25.412-0.13852-0.62336-0.21538-1.6363-0.25-2.8691h-2e-3c-0.13709-4.58 0.32601-12.233 0.58203-15.049 0.32553-3.5879 0-28.023 0-28.023zm572.14 2.9356s1.6263 6.511 1.3008 11.727c-0.32542 5.2156 0.97788 14.989 0.65235 21.182-0.0971 1.8355-0.1671 4.3978-0.22266 7.2168l2e-3 0.0273c-0.13833 6.6355-0.20129 14.732-0.42969 18.168-0.33259 4.8831 8e-4 11.075 0.32618 15.314 0.32541 4.232-0.32618 14.336-0.32618 20.521 0 6.1922 0.32618 43.99 0.32618 46.92 0 2.9368 0.64956 11.076 0.32422 14.338-0.32542 3.2554 0 8.7961 0 10.424s-0.65049 4.5583-3.2617 2.9375c-2.6043-1.6346-6.8436-4.1e-4 -9.7734-0.32617-2.9298-0.32542-28.023-0.32617-28.023-0.32617l-0.65039-36.82s15.965-1.9525 21.506-1.627c5.5411 0.32542 12.938-0.83203 12.938-0.83203v-4.0801s-11.96-0.95572-17.176-1.2812c-5.2086-0.32541-21.174-0.65039-27.041-0.65039-5.8597 0-8.4706-0.32699-10.424 0.32422-1.9532 0.6511-2.6055 0.32755-2.6055-2.6094 0-2.9298-0.98217-28.018-1.3008-29.32-0.3326-1.3022 0.31764-2.6035 1.627-2.6035 1.3021 0 19.227 0.32482 24.436 0.65039 5.2086 0.32542 23.64-0.0273 25.926-0.0273 2.2788 0 5.4297 0.22266 5.4297 0.22266v-3.166s-9.2051-0.29141-11.969-0.7832c-2.7705-0.48484-9.9378-2.1124-12.383-1.9531-2.445 0.1663-3.4224 0-4.7246 0s-3.0957-0.6503-3.0957-2.6035 0.81641-33.232 0.81641-33.232 18.085-4e-4 22.15-0.49219c4.0727-0.48484 9.2051-0.98242 9.2051-0.98242l0.22852-3.3945s-24.581-2.0164-31.75-1.8086c-7.5705 0.21468-10.403-0.42958-12.26-0.88671-0.94197-0.22186-1.6324-0.42188-2.5605-0.42188-1.039 0-1.7405 0.21431-2.6895 0.4082-1.5862 0.29783-3.8921 0.65076-9.6894 0.24219-0.51254-0.034-0.8934-0.11097-1.1289-0.22851-0.51945-0.24945-0.31918-0.72659 0.80274-1.3984 1.6277-0.97663 10.749-7.494 16.615-9.4473 5.8666-1.9533 12.051-7.1692 14.988-8.7969 2.9298-1.6277 10.75-7.8202 14.006-8.7969 3.2623-0.97663 19.879-11.727 19.879-11.727zm-267.83 0.64649c3.2623 1.6346 5.2155 2.6112 9.1289 4.5644s10.099 10.424 13.68 15.314c3.5879 4.89 6.524 15.314 7.8262 18.895 1.3022 3.5878 1.6289 8.4707 1.6289 8.4707l4.8828 0.32617s-1.3027-3.2557-1.3027-6.1856c0-2.9368-1.3026-5.5426-4.2324-15.967-2.9368-10.431-9.1281-14.662-11.732-17.273-2.6043-2.6043-4.8892-3.2552-7.168-3.9062-2.2788-0.6511-2.9309-1.6275-4.5586-2.9297-1.6277-1.3091-3.2623-0.65753-8.1523-1.3086zm-29.971 4e-3c-12.703 0.97663-24.435 10.424-32.906 19.871-5.3956 6.0328-9.3239 22.262-10.1 25.088-0.97662 3.5879-0.32496 4.5645 1.3027 3.5879 1.6277-0.97663 4.8904-2.2787 5.209-5.541 0.32553-3.2554 7.8258-20.523 13.686-27.691 5.8666-7.1688 11.075-10.431 22.809-15.314zm13.355 9.4473c-10.424 0-14.822 1.7939-20.197 4.5644-5.3749 2.7705-13.036 11.727-16.291 17.102-3.2554 5.3818-5.5332 15.472-5.5332 17.758 0 2.2788-9e-5 3.2554-2.6113 4.5644-2.6043 1.3022-7.4934 2.9317-12.709 6.5195-5.2086 3.5809-12.704 14.33-14.332 19.871-1.6346 5.5411-3.9128 20.849-3.2617 25.088s1.6283 27.365 1.3027 37.145c-0.32553 9.7731-0.65234 26.715-0.65234 32.256s0.32684 18.57-0.32422 25.738c-0.65108 7.1688-0.97656 19.221-0.97656 19.221l11.732-2.2773s-0.98419-22.81-0.32617-25.58c0.65107-2.7636 0.65234-14.822 0.65234-14.822s16.616-0.32475 19.871-0.65039c3.2623-0.32542 6.0258 3.7e-4 7.4942 1.4688 1.4684 1.4615 0.49113 5.3736-0.32618 7.6523-0.81731 2.2788-3.7466 5.05-9.6133 3.9141 3.0961 2.9298 4.7244 2.9304 9.4551 2.2793 4.7168-0.65801 7.1612-5.8678 7.9785-9.7812 0.81038-3.9065-0.6504-7.4863-0.6504-7.4863l10.75-4.2402-10.258-1.627s0.48374-3.9129 0.15821-8.6367c-0.32554-4.7168-6.0255-9.6068-11.4-9.2812-5.3748 0.32542-7.6602 5.209-7.6602 5.209s3.907-1.6278 6.8438-1.7871c2.9298-0.16629 5.5397 3.9061 5.8652 6.8359 0.32553 2.9368-2.6106 7.0095-7.002 8.1524-4.4052 1.1359-18.091 0.32421-19.719 0.32421-1.6277 0-2.2802-0.32493-2.4394-1.3086-0.16623-0.97663 0.32654-18.244 0.9707-27.041 0.658-8.7965-0.31836-29.16-0.31836-30.469 0-1.3022-5.8e-4 -2.4373 2.4375-2.6035 2.445-0.15912 20.039-2.8e-4 21.182 0.16602 1.1359 0.15911 3.4212 0.65032 4.0723 1.627 0.65108 0.97659 0.32489 5.5416-0.32617 6.8438-0.65108 1.3022-1.4674 5.0501-10.098 5.7012 2.6043 1.794 6.3502 3.2547 12.217 0.65039 5.8666-2.6043 5.3763-12.543 5.0508-16.449 3.0961-0.81732 12.051-4.2402 12.051-4.2402s-7.0023-0.49194-9.4473-0.81055c-2.4381-0.3326-2.9297-1.6264-1.9531-4.8887 0.97662-3.2623-1.6271-8.1457-3.2617-10.75-1.6277-2.6112-10.75-6.1916-15.633 2.2793 3.5809-2.6043 9.7714-0.65258 11.725 3.2539 1.9532 3.9134-1.6263 7.8211-5.8652 8.8047-4.232 0.96971-21.832 0.31836-21.832 0.31836s1.6341-13.029 2.2852-15.314c0.65108-2.2788 3.5807-10.75 7.4941-13.68 3.9065-2.9368 12.052-4.5638 14.338-5.2148 2.2788-0.65106 6.1849 0.65128 5.8594-7.4941-0.40172-10.099 4.157-24.562 9.7812-29.32 8.4709-7.1688 18.895-8.1523 18.895-8.1523s-6.4e-4 25.42-0.32617 28.35c-0.32553 2.9298 6.4e-4 7.169 0.32617 11.727 0.32553 4.5645-0.97656 14.012-0.97656 19.879 0 5.8666 0.32422 14.338 0.32422 21.174 0 6.8432-0.32422 21.181-0.32422 31.938 0 10.75-1e-3 28.993 0.32422 34.209 0.32553 5.2155 0.32617 16.291 0.32617 16.291s0.32489 6.5174-0.32617 9.4473c-0.65108 2.9298 0 27.041 0 27.041l6.8438 3.9121s0.32506-19.712 0.48437-24.436c0.16623-4.7238-1.3015-18.735-0.65039-29.977 0.65108-11.241 4.2e-4 -39.916 0.49219-47.078 0.48484-7.1688-0.97703-30.304-0.49219-36.496 0.49178-6.1922 0.32533-14.822 0.16602-17.752-0.16622-2.9368 0.65061-4.4059 0.48437-13.854-0.1593-9.4475 0.97657-26.223 0.97657-34.375 8.6372-0.97663 15.315 2.9364 20.205 7.6602 4.8831 4.7238 7.8203 19.388 8.7969 23.135 0.97662 3.7471-0.16691 9.2809 0.65039 11.4 0.81038 2.1195 1.3027 2.6122 2.2793 2.7715 0.97661 0.1663 2.611 0.3238 7.4941 1.4668 4.89 1.1359 9.1293 3.581 13.361 9.9394 4.2389 6.3515 3.7461 23.127 3.7461 23.127s-16.774-0.32496-18.568-0.48438c-1.7939-0.15912-5.7087 0.65138-7.8281-1.1426-2.1125-1.7939-1.1353-8.4705 0.32617-9.6133 1.4684-1.1359 2.2867-4.067 9.9473-1.6289-5.8666-5.5341-11.408-4.7226-15.973-1.1348-4.5576 3.5809-3.0957 10.257-3.0957 11.566 0 1.3022 0.49161 1.9531-0.81054 2.9297-1.3022 0.9766-9.6152 1.7871-9.6152 1.7871s6.6783 2.9368 8.8047 3.5879c2.1125 0.6511 2.763 0.99812 2.4375 2.9375-1.1359 6.677 1.4059 12.702 6.5176 14.496 7.0026 2.445 8.7961 7.4e-4 10.424-1.627-4.5576 1.1359-7.1672-1.1431-9.7715-4.3984-2.6043-3.2623-0.81895-7.9867 2.4434-9.4551 3.2623-1.4684 24.596-0.1582 24.596-0.1582v31.279c0 10.258-0.48501 24.269-0.81055 28.508-2.6112 1.3022-19.879 1.6289-23.785 0.65234-3.9134-0.97663-4.239-8.7967-2.6113-10.75 1.6346-1.9601 3.589-4.5646 10.758-2.6113-5.3749-6.3515-11.408-3.9058-15.314-0.65039-3.9065 3.2623-3.2615 9.773-2.6035 11.082 0.65107 1.2952-0.33258 3.5807-2.6113 3.9062-2.2788 0.32542-4.558 0.65039-7.8203 0.65039 3.2623 2.2857 5.2142 4.0723 8.4766 4.0723 3.2554 0 2.3763 1.7735 2.2793 2.4453-0.16623 0.97663-1.6749 6.3103 0.65234 9.7734 4.987 7.4389 11.732 7.0028 16.123 3.4219-7.1688 1.3021-8.6366-2.4445-10.59-5.0488-1.9532-2.6043 0.32626-7.4947 2.9375-8.7969 2.6043-1.3022 20.528-0.32542 22.475 0 1.9602 0.32542 2.6126 1.3014 2.2871 2.6035-0.32553 1.3091-0.65234 10.105-0.65234 16.941 0 6.8432 0.65234 18.578 0.65234 18.578h10.098s0.32548-41.705 0.97656-47.578c0.65108-5.8597 0-33.558 0-40.068 0-6.5177-0.64976-17.267-0.32422-25.094 0.32553-7.8129-0.97841-17.918-2.9316-24.762-1.9602-6.8363-9.7721-12.704-14.662-16.936-4.89-4.2389-9.7734-4.5645-9.7734-4.5645s-1.309-5.2161-1.9531-10.432c-0.65108-5.2086-6.5168-19.221-12.709-26.064-6.1922-6.8363-15.946-9.1211-28.025-9.1211zm210.07 36.561c0.11944-2e-3 0.23749-1e-3 0.35352 0 0.42935 8e-3 0.83689 0.0378 1.2031 0.0938 6.1922 0.97663 19.219-3.2e-4 24.275 0.16602 1.9532 0.0556 3.2558 0.64462 3.2558 3.2559 0 2.6043 0.32618 28.017 0.32618 29.645 0 1.6346-0.32622 3.2621-1.9609 2.9297-1.6208-0.31862-19.545 0.33285-22.801-0.31836-3.2623-0.65106-15.641-0.65235-15.641-0.65235s0.32639-11.081-0.65039-15.639c-0.49175-2.2649 1.7309-10.348 0.65039-11.727-1.6277-2.1194-1.3009-2.9375 0.65235-3.9141 1.9532-0.97663 3.5802-2.2845 5.2148-2.9356 1.2398-0.4907 3.3313-0.8809 5.1211-0.9043zm-442.56 0.48243c10.159-8e-3 28.106 0.20745 29.348 0.10351 1.9532-0.1663 2.4388 0.64465 2.1133 2.2793-0.26321 1.2814 0.97593 20.036 0.65039 23.299-0.32554 3.2554-0.65039 8.6309-0.65039 8.6309s-15.313 0.9778-20.848 1.6289c-3.5671 0.42943-15.972-0.32617-17.6-0.32617-1.6277 0-1.9551-0.65096-1.9551-1.9531 0-1.3022 0.32617-26.861 0.32617-30.137 0-2.6112 0.16701-3.2626 1.9609-3.4219 0.74804-0.0726 3.2681-0.10087 6.6543-0.10351zm40 5.5976c0.24078-4e-3 0.54198 0.0687 0.90821 0.20703 1.3022 0.48484 8.471 4.7235 10.916 5.8594 2.445 1.1428 2.9305 2.4455 3.9141 3.1035 0.97663 0.64415 3.2558 0.48495 4.2324 1.7871s7.167 5.2074 9.9375 6.6758c2.7706 1.4684 14.989 8.1531 16.291 9.2891 1.3022 1.1428 3.4219 2.7708-0.16601 2.4453-3.5809-0.32542-16.449-0.81774-20.037-0.32617-3.5809 0.49179-14.332 0.97631-18.086 0.16601-3.7402-0.81732-9.4394-0.33203-9.4394-0.33203s0.15862-7.8207 0.65039-12.053c0.48484-4.2389 0.32638-13.194 0.16015-14.988-0.11451-1.2894 0.10342-1.82 0.71875-1.834zm385.05 1.8359s0.97767 1.468 0.81836 3.0957c-0.1663 1.6277-1.1432 5.2093-1.4688 7.6543-0.32541 2.445 0.6515 3.7457 0.49219 6.8418-0.1663 3.0961 0.32617 9.123 0.32617 9.123s-17.268 0.98327-21.182 1.1426c-3.9134 0.15912-12.053-7e-4 -13.688-0.16015-1.6277-0.1663-2.6045-1.4673-5.375-0.98243-2.7705 0.49176-8.1445-0.32617-8.1445-0.32617s8.3117-4.5581 10.916-6.8438c2.6042-2.2788 7.8194-4.3976 11.4-5.2148 3.5878-0.81041 3.4224-2.4373 9.2891-5.3672 5.8666-2.9368 16.615-8.9629 16.615-8.9629zm-100.09 3.4316c1.4311 3e-3 2.729 0.11111 3.6445 0.31445 2.9298 0.65106 7.1674 3.9062 5.8652 9.4473-1.3091 5.5411-3.5878 8.4713-10.105 8.7969-6.5108 0.32542-9.2193-0.95632-10.75-3.2559-2.6043-3.9134 1e-4 -12.058 2.6113-13.686 1.7905-1.119 5.5859-1.6233 8.7344-1.6172zm-189.89 5.166c0.2262 0 0.44106 0.0104 0.64453 0.0293 3.2554 0.3326 7.0445 2.064 9.7734 5.541 2.2857 2.9368 2.6127 11.409-2.2774 12.711-4.89 1.3022-11.077 1.3022-14.014-1.9531-2.9298-3.2623-4.7236-3.2831-3.9062-9.1289 0.68182-4.922 6.3866-7.2017 9.7793-7.1992zm288.5 24.475c5.5411 0 20.205 0.4848 21.348 0.97656 1.1359 0.48484 2.4386 0.15991 2.2793 2.1133-0.1663 1.9532 0.15912 20.363 0 23.625-0.1663 3.2554-0.49144 6.0273-0.16602 7.0039 0.32542 0.97663 1.468 2.1195-0.49219 2.6113-1.9463 0.48484-17.753-0.49342-22.477-0.16797-4.7238 0.32542-17.107 0.16797-17.107 0.16797l-0.16016-35.52s11.234-0.81054 16.775-0.81054zm-384.43 0.69921c7.5603 9.9e-4 16.906 0.27735 16.906 0.27735l0.32618 35.51s-7.4949-0.32541-13.195 0c-5.7073 0.32542-23.299-0.15911-25.086 0-1.7939 0.1663-2.6113-0.81566-2.6113-2.4434 0-1.6277-0.15931-16.777 0-20.365 0.16622-3.581 0.32422-12.051 0.32422-12.051s9.94-0.49279 16.783-0.81836c1.7108-0.0813 4.0326-0.10975 6.5527-0.10938zm40.002 0.13282c3.4151 4e-3 6.4397 0.0429 8.0176 0.14453 5.0493 0.32541 10.424 0.1582 12.059 0.1582 1.6277 0 1.7871 0.9765 1.7871 1.9531 0 0.98354 0.49303 31.12 0.65234 32.256 0.16622 1.1428-0.48543 1.1443-1.3027 1.3106-0.81039 0.15912-18.085-0.49179-24.111 0-6.0259 0.48484-14.17 0.31836-14.17 0.31836l0.1582-35.996s9.397-0.15398 16.91-0.14453zm321.62 0.14453 0.16602 35.838s-12.544 0.6506-17.268 0.48437c-4.7238-0.15911-8.4787-1.4603-12.053-1.1348-3.5879 0.32541-7.9864 0.97656-8.9629 0.97656-0.98355 0-1.4688-0.97764-1.4688-1.7949 0-0.81041 0.97656-28.994 0.97656-30.303 0-1.2952 0.65234-2.7637 0.65234-2.7637s9.4477-0.97635 13.527-1.1426c4.0658-0.15911 12.052 0.49173 15.314 0.97657 3.2554 0.49175 4.8832-0.81034 6.3516-0.97657 1.4615-0.15911 2.7637-0.16015 2.7637-0.16015zm-293.1 4.2793c0.32821-4e-3 0.82898 0.17895 1.4902 0.44336 1.6277 0.65107 9.9388 6.0271 10.59 7.1699 0.65107 1.1359 0.97766 2.279 0.81836 4.3984-0.16623 2.1194 0.64992 13.679 1.1348 15.799 0.49177 2.1195 0.81783 3.2624-1.4609 3.5879-2.2857 0.31862-9.9392 0.48451-11.082 0.31836-1.1359-0.15912-1.4688-1.136-1.4688-2.7637s0.16558-25.413-0.32617-27.373c-0.28789-1.1597-0.17501-1.5726 0.30469-1.5801zm247.16 0.92969s1e-3 7.3362-0.1582 10.758c-0.16622 3.4216 0.6444 16.283 0.81055 17.592 0.1593 1.3022-0.49299 2.2793-1.6289 2.2793-1.1428 0-9.979 0.46484-12.258 0.46484-2.2787 0-2.6048-1.1362-2.2793-3.4219 0.32553-2.2788 0-8.4725 0-10.426 0-1.9532 0.16541-4.3977-0.16015-6.0254-0.32554-1.6346-1.9e-4 -2.9368 1.2949-3.5879 1.3091-0.65098 14.379-7.6328 14.379-7.6328zm-343.22 36.637c0.34773 2e-3 0.66785 6e-3 0.95313 0.0176 4.5576 0.1663 14.109 1.1852 15.799 0.98437 2.7705-0.32541 3.2619 0.31845 3.0957 1.9531-0.15931 1.6277 1.1433 28.509 0.49219 30.137-0.65108 1.6277-1.3086 3.0959-1.3086 3.9062 0 0.81732-0.64448 1.6348-1.6211 1.6348-0.98354 0-12.06-0.49108-14.83-0.65039-2.7706-0.1663-3.7478 1.2949-4.8906 1.2949-1.1359 0-2.2779-0.64436-3.5801-0.81054-1.3022-0.15912-13.846 0-13.846 0s-0.65778-20.038-0.16602-21.832c0.49177-1.7939 0.81662-12.862 0.65039-13.846-0.15931-0.97663-0.48402-1.9531 0.98438-1.9531 1.3701 0 13.052-0.85795 18.268-0.83399zm408.88 0.34961c1.1359 0 2.9299 0.16084 2.7637 1.4629-0.15912 1.3021 0.65039 7.6602 0.65039 11.4 0 3.7541-0.16602 19.387-0.16602 20.689 0 1.3091-1.4621 3.3243-4.0664 3.0957-7.1688-0.65106-13.201 1.1423-15.965 1.3086-2.7705 0.15912-9.121-0.81661-11.074-0.65039-1.9602 0.15912-4.4001-0.81747-5.543-0.6582-1.1428 0.1663-2.2771 0.32538-2.4434-1.7871-0.1593-2.1195-0.65229-11.733-1.6289-16.291-0.97663-4.5645-0.16491-10.916-0.32422-13.361-0.16622-2.445 2.1192-3.9121 3.9062-3.9121 1.7939 0 9.7798-0.48501 12.059-0.81054 2.2788-0.32542 20.689-0.48633 21.832-0.48633zm30.629 0c5.2086 0 19.379 0.9707 19.379 0.9707s0.16669 13.035 0.49218 17.434c0.32542 4.3982 0.32422 18.57 0.32422 18.57s-17.107-1e-3 -21.18-0.16016c-4.0727-0.1663-9.4475-0.32581-12.869-0.49218-3.4216-0.15912-6.1853-0.32527-6.3516-3.9062-0.15949-3.581-0.6518-21.831-0.16015-23.459 0.48483-1.6277 0.96985-3.7478 0.81054-4.8906-0.15912-1.1359 0-3.2559 0-3.2559s14.33-0.8086 19.553-0.8086zm-393.54 0.0996c2.8711 9.8e-4 8.2183 0.18179 10.535 0.55078 3.0961 0.48484 6.1924 1.8e-4 7.0098 0.81055 0.81039 0.81732 2.1126-0.3257 2.7637 0.16601 0.65107 0.48484 2.7706 1.7948 2.6113 3.748-0.16622 1.9533-0.32527 14.661-1.1426 17.266-0.81731 2.6043-1.1426 15.148-1.1426 15.148s-8.7968 1.4623-13.514 0.98438c-4.7307-0.49176-7.5012-0.65821-9.1289-0.65821s-9.9408-0.16006-12.379 0.33204c-2.445 0.47792-4.2376 0.326-3.9121-2.2852 0.32554-2.6043 0.32533-16.291 0.16602-19.387-0.16624-3.0961-0.1656-8.9566 0.32617-10.266 0.48485-1.3021 0.15931-3.906 0-5.0488-0.16623-1.1359 0.3237-1.1365 1.7852-1.3027 1.4684-0.15949 10.266 1e-3 11.242 0.65235 0.97662 0.65106 2.1202-0.48612 2.9375-0.65235 0.2026-0.0397 0.88478-0.059 1.8418-0.0586zm35.916 1.0352c1.9766-4e-3 4.1118 0.0671 5.6426 0.28515 3.1653 0.45022 8.7971 0.29006 12.219 0.44922 3.4216 0.1663 10.41 0.45703 10.41 0.45703s1.087 14.289 0.92774 18.195c-0.16623 3.9134-0.65821 10.1-0.65821 11.734 0 1.6277-0.8098 2.4381-2.4375 2.7637-1.6346 0.3326-8.4725 1.3019-14.99 2.1191-4.8692 0.61644-9.7718 0.651-12.217 0.97656-2.445 0.3326-6.8438-0.16015-6.8438-0.16015s0.15931-12.217 0-16.297c-0.16622-4.0658-0.16673-14.981 0.48438-17.26 0.65107-2.2857 0.98449-2.9384 2.7715-3.0977 0.89697-0.0832 2.7148-0.16186 4.6914-0.16601zm279.93 0.1914c2.0218-8e-3 2.4225 0.41824 2.916 1.7637 0.65107 1.794 1.6263 4.2388 1.3008 6.5176-0.32553 2.2788-0.16602 26.391-0.16602 26.391s-9.2802-0.3257-12.051 0.16601c-2.0779 0.36019-2.287 1.0112-5.2168 0.97657-2.2996-0.0416-3.9123-2.1207-12.051-1.6289-6.0536 0.36019-10.195-0.65772-10.195-1.9668 0-1.3022-0.81836-10.097-0.81836-13.027 0-2.9368 0.97766-8.479 0.81836-10.758-0.16622-2.2788 0-5.5332 0-5.5332s14.586 0.16592 18.658-0.64453c4.0796-0.81728 11.084-1.8975 14.18-2.1191 1.0978-0.0813 1.9511-0.13212 2.625-0.13476z"/>
  <path d="m120.63 213.11c-1.1216 1.2077-6.306 7.3084-9.5405 9.1648-1.8051-0.90164-4.3543-2.1093-6.1484-2.8552-1.3525-0.56078-3.3537-2.113-4.7006-2.5693-5.747-1.9462-10.79-1.8234-16.46-1.1637 0.30238-1.4642 1.336-4.138 3.6634-6.0329 2.3384-1.9077 6.5424-4.8491 8.8698-5.7086 2.3274-0.86315 6.4049-2.2449 8.0433-2.2449s4.0042-0.18693 5.9853-0.18693c1.9829 0 4.5357 0.0293 6.1722 0.37385 1.6384 0.34453 4.5357 0.5168 6.174 1.1216 1.6383 0.60293 5.3255 1.0519 6.3591 1.3103-1.292 1.6365-3.3683 4.0299-4.488 5.2376zm-30.115 19.829c-2.4319-3.9291-9.2839-7.7226-10.629-8.0396-1.3433-0.31704-6.7989-3.7623-7.7885-3.5003 1.0409-0.27489 3.9676-1.1417 6.1227-1.7465 2.1551-0.60293 5.7764-1.3781 6.9822-1.4642 1.2077-0.0861 3.7073-0.0861 5.8625-0.0861 2.1551 0 5.7764 0.43066 6.5515 0.68906 0.77519 0.25839 3.3628 0.86132 4.0519 1.2938 0.68905 0.43066 2.2413 1.1637 2.8002 1.6384 0.56261 0.47281 2.9376 1.5046 3.0678 2.7965-5.3567 4.3286-12.619 7.1838-17.021 8.419m-33.92 8.6664c-0.88148-2.0287-2.0287-6.5827-5.113-9.5405-4.3139-4.1343-6.9217-5.9853-9.5112-7.2259 0.9053-1.5339 6.1209-3.4984 10.259-3.4984s10.693 0.38485 13.281 1.248c2.5858 0.86132 5.3512 0.83017 6.2968 1.4331 0.94929 0.60475 3.9547 1.6035 4.9883 2.1203 1.0354 0.51863 5.2302 3.2529 6.6102 4.116 1.3781 0.86132 4.6145 4.488 4.6145 4.488-6.7348 2.6188-21.17 6.8026-31.425 6.8594m-31.55-3.711c-2.3714-0.69272-5.2394-1.4258-7.6694-2.3366-2.124-0.79718-4.0555-2.0342-6.0806-2.901-7.5008-3.207-11.69-5.2376-15.244-7.9498 2.3256-1.2114 5.375-2.7892 7.7721-3.2437 5.3494-1.0116 11.292-1.8967 16.12-1.1216 4.8289 0.77702 9.8282 2.157 12.416 3.1906 2.5858 1.0354 7.8435 4.138 9.2235 5.0012 1.3781 0.86133 7.4843 5.3915 8.7763 7.4605 1.2938 2.0672 1.9957 5.8295 1.9957 5.8295s-5.2779-0.16493-11.316-0.65424c-4.9352-0.40133-10.545-1.6787-15.993-3.2748m-51.908-32.734s8.0964-1.4972 10.942-1.4972c2.8442 0 8.298-0.17959 10.195-0.0935 1.8949 0.0861 5.0598 0.0806 6.2657-0.0935 1.2077-0.17227 4.1179-0.0696 5.2376 0.18692 1.1216 0.26023 6.9804 1.7062 7.6694 1.9646 0.68906 0.25839 2.3604 1.8711 2.3604 1.8711s-9.645 7.9938-10.123 9.1648c-1.4789 0.60659-8.7232 2.9432-10.479 4.4624-1.5852 1.0556-2.1478 2.2724-5.7012-0.2529-1.2022-0.86315-16.367-15.713-16.367-15.713m47.792 2.7122c0.60292-0.17226 1.7355-1.1307 2.3384-1.215 0.60292-0.088 2.2926-0.70738 5.0506-1.3103 2.7581-0.60292 3.4911-0.87048 4.9572-1.215 1.4661-0.34636 6.0806-0.72754 7.2003-0.46915 1.1216 0.2584 5.0543 0.16677 7.2956 1.0299 2.2413 0.86132 4.4917 2.7196 5.6114 3.9273 1.1216 1.2077 4.1288 6.1209 5.8002 10.382-6.7348-0.84117-12.533-1.1216-21.555 3.0623-1.9536-1.303-12.168-3.5039-14.714-3.9383-2.5455-0.43249-14.611-0.61941-14.611-0.61941s5.4282-5.2541 7.6694-6.5479c2.2413-1.2938 4.9572-3.0861 4.9572-3.0861m46.515-4.0537c3.9126-0.24923 5.791 0.42883 7.1691 0.68723 1.3799 0.25839 7.5723 2.1295 9.5533 4.3726-1.1197 1.2058-1.8876 5.1826-2.3201 6.4764-0.20342 0.60476-10.86 3.5351-13.094 4.7391-2.5455-0.72938-6.7495-0.60843-7.2021-0.81185-0.45815-1.9994-1.3341-4.0849-2.3366-6.2345-1.3121-2.8094-2.6664-6.5662-3.6964-6.1832 1.8088-0.67623 8.014-2.7947 11.927-3.0458m65.259-2.1826c-1.4661-0.0861-5.2596-0.60476-6.8979-1.0336-1.6383-0.43066-6.1209-0.77702-8.0158-1.0354-1.8986-0.25839-3.5351-0.68905-5.6902-0.94928-2.157-0.2584-6.3793 0.34636-7.9315 0.69089-1.5522 0.34452-5.6041 1.1197-9.1373 2.3274-3.5333 1.2058-8.1899 4.0519-8.1899 4.0519s-4.3964-2.6738-8.7928-4.0519c-2.5766-0.80818-6.5534-0.77519-9.0512-0.86132-2.5015-0.0861-5.6902 0.94562-8.276 1.5504-2.5858 0.60293-7.3286 1.8106-7.3286 1.8106s-1.6365-0.94928-2.8442-1.5522-4.3103-1.0336-5.6902-1.2058c-1.3781-0.17226-3.9657-0.51679-6.5515-0.34636-2.5858 0.1741-9.1373 1.7263-11.895 2.2413-2.7599 0.51862-6.5094 2.3549-6.5094 2.3549s-1.2168-0.93463-2.047-1.3836c-1.4404-0.77519-3.8576-1.3158-5.7544-1.6603s-7.9315-1.2058-11.034-1.5522c-3.1044-0.3427-15.346 0.51862-19.312 0.68906-3.9639 0.17409-13.996 0.85216-13.996 0.85216s9.9455 12.253 13.048 15.183c3.1044 2.9322 6.8979 5.6902 8.4483 7.2406 1.5522 1.5522 11.725 7.5008 14.914 8.7946 3.1906 1.2938 12.328 5.5161 18.707 7.3286 6.3793 1.8088 16.81 3.5333 22.154 3.7916 5.3457 0.26023 14.483-0.0861 18.881-0.68906 4.3946-0.60292 11.205-1.8967 15.773-3.1906 4.5687-1.292 10.778-3.8796 17.674-7.0683 6.8961-3.1887 11.639-6.7238 16.208-9.9987 4.5687-3.2767 9.0512-7.8454 10.429-9.2253 1.38-1.38 5.9486-6.6377 6.8118-7.6731 0.86132-1.0336 4.3103-5.43 4.3103-5.43s-0.94929 0.0843-2.4135 0" fill="#fff"/>
 </g>
</svg>
