<?xml version="1.0" encoding="UTF-8" standalone="no"?>
<svg xmlns="http://www.w3.org/2000/svg" xml:space="preserve" width="400" height="500" viewBox="30.5 31.5 400 500">
  <path fill="#0085ca" d="M230.45 531.13c-74.32-53.92-125.26-122.02-155.74-208.16-27.64-78.1-38.73-172.75-33.91-289.35l.02-.46h379.82l.02.46c4.81 116.6-6.28 211.24-33.91 289.35-30.48 86.14-81.42 154.24-155.74 208.16l-.28.2z"/>
  <path d="M419.96 33.21c9.07 219.45-36.25 385.95-189.45 497.1C146.04 469.02 94.36 390.9 66.52 296.34c-2.09-7.09-4.04-14.27-5.87-21.54-11.45-45.69-17.77-95.02-19.88-147.94-1.2-30.06-1.05-61.28.29-93.65h378.9m.92-.95H40.14l-.04.92c-4.82 116.66 6.28 211.36 33.93 289.52 30.51 86.24 81.51 154.41 155.91 208.39l.56.41.56-.41c74.4-53.98 125.4-122.15 155.91-208.39 27.65-78.16 38.75-172.86 33.93-289.52l-.04-.92z"/>
  <path fill="#fff" fill-rule="evenodd" stroke="#000" stroke-linecap="round" stroke-linejoin="round" d="M227.62574 221.871c3.76564 11.17965-2.98611 16.69797-14.04929 16.33639-11.92706-.38982-23.75635-13.12189-21.89076-29.95005 1.63373-14.73673 15.69548-31.16125 38.81431-32.78167 30.29883-2.12368 53.8645 25.4515 53.97637 49.5537.15021 32.36386-21.63399 73.2668-74.92956 72.75138-36.42656-.35228-77.64946-28.54514-79.28594-81.06293-1.55751-49.9836 44.52716-102.1977 100.23913-103.97388 53.52678-1.70651 110.99204 43.9549 115.29227 103.75606 4.22086 58.69738-29.80053 130.33727-115.29227 140.7452C158.44053 366.01786 72.501948 316.45842 72.393695 216.5 72.284129 115.32923 157.47955 63.276348 230.5 63.276348 337.86858 65.132498 386.77243 159.16585 383.67001 216.5c-.77891 14.39461-2.98835 31.44819-8.86488 43.67891 1.19404-11.30854 1.29996-19.13357 1.30022-29.9945.00176-72.86398-54.58098-144.669185-143.21566-145.393849-82.7723-.676735-139.378418 65.912989-135.483108 134.793349 4.373288 77.3323 69.721868 110.27196 115.189688 108.76404 80.40099-2.66646 104.8433-61.71493 104.8433-99.03481 0-50.91142-39.62398-85.82049-83.06145-85.82049-41.564 0-72.60617 31.32586-72.60617 69.70192 0 33.02149 26.49357 54.04324 52.71208 54.30941 24.84546.25223 41.53072-20.28974 41.53072-36.30308 0-20.28877-13.1952-28.75205-23.23397-28.75205-12.40781 0-20.04763 7.07826-20.32973 14.66645-.14521 3.90613 2.58757 8.56753 8.13189 8.56753 2.87066 0 5.52923-1.30906 7.0428-3.81183z"/>
</svg>